<svg id="Layer_1" data-name="Layer 1" xmlns="http://www.w3.org/2000/svg" viewBox="0 0 16.36 16.37">
  <defs>
    <style>
      .cls-1 {
        fill-rule: evenodd;
      }
    </style>
  </defs>
  <title>analytics</title>
  <g>
    <path class="cls-1" d="M481,132.24c0,0.51,0,1,0,1.53,0,2.4,0,4.8,0,7.21a1.08,1.08,0,0,1-.45,1.1H465.12a2.25,2.25,0,0,1-.49-0.43V138a0.51,0.51,0,0,0,.26-0.2l2-1.9a0.26,0.26,0,0,1,.31-0.1,1.62,1.62,0,0,0,1.55-.17,0.23,0.23,0,0,1,.27,0l1.92,1a0.25,0.25,0,0,1,.17.28,1.69,1.69,0,0,0,1.07,1.63,1.71,1.71,0,0,0,1.86-.43,1.66,1.66,0,0,0,.25-1.94,0.28,0.28,0,0,1,0-.33l3-4.58a0.3,0.3,0,0,1,.32-0.16,1.4,1.4,0,0,0,.91-0.2,0.32,0.32,0,0,1,.41,0C479.61,131.37,480.29,131.8,481,132.24Z" transform="translate(-464.63 -125.71)"/>
    <path class="cls-1" d="M480.29,125.71a1.07,1.07,0,0,1,.7,1.18c0,1.35,0,2.71,0,4.06l-1.46-1a0.22,0.22,0,0,1-.11-0.28,1.69,1.69,0,0,0-2.92-1.42,1.67,1.67,0,0,0-.17,2,0.28,0.28,0,0,1,0,.38l-2.92,4.44a0.27,0.27,0,0,1-.32.16,1.57,1.57,0,0,0-1.3.32,0.23,0.23,0,0,1-.3,0c-0.61-.33-1.23-0.65-1.85-1a0.24,0.24,0,0,1-.14-0.29,1.6,1.6,0,0,0-.87-1.63,1.58,1.58,0,0,0-1.84.15,1.55,1.55,0,0,0-.6,1.72,0.54,0.54,0,0,1-.2.64c-0.46.41-.86,0.9-1.36,1.27v-10.4l0.43-.43h15.23Z" transform="translate(-464.63 -125.71)"/>
  </g>
</svg>
