<svg id="Layer_1" data-name="Layer 1" xmlns="http://www.w3.org/2000/svg" viewBox="0 0 25.67 29.13">
  <defs>
    <style>
      .cls-1 {
        fill: #d4d1d7;
      }
    </style>
  </defs>
  <title>calendar</title>
  <path class="cls-1" d="M350.75,329.94v25.67H325.08V329.94h5.24v2.47a2.17,2.17,0,0,0,4.35,0v-2.47h6.58v2.47a2.17,2.17,0,0,0,4.35,0v-2.47h5.15Zm-18.88,7.75h-4.11v4.11h4.11v-4.11Zm5.37,0h-4.11v4.11h4.11v-4.11Zm5.37,0H338.5v4.11h4.11v-4.11Zm5.37,0h-4.11v4.11H348v-4.11Zm-16.1,5.37h-4.11v4.11h4.11v-4.11Zm5.37,0h-4.11v4.11h4.11v-4.11Zm5.37,0H338.5v4.11h4.11v-4.11Zm5.37,0h-4.11v4.11H348v-4.11Zm-16.1,5.37h-4.11v4.11h4.11v-4.11Zm5.37,0h-4.11v4.11h4.11v-4.11Zm5.37,0H338.5v4.11h4.11v-4.11Zm5.37,0h-4.11v4.11H348v-4.11Zm-3.3-16.28v-4.42a1.25,1.25,0,0,0-1.25-1.25h0a1.25,1.25,0,0,0-1.25,1.25v4.42a1.25,1.25,0,0,0,1.25,1.25h0A1.25,1.25,0,0,0,344.68,332.15Zm-10.93,0v-4.42a1.25,1.25,0,0,0-1.25-1.25h0a1.25,1.25,0,0,0-1.25,1.25v4.42a1.25,1.25,0,0,0,1.25,1.25h0A1.25,1.25,0,0,0,333.75,332.15Z" transform="translate(-325.08 -326.48)"/>
</svg>
