<svg id="Layer_1" data-name="Layer 1" xmlns="http://www.w3.org/2000/svg" viewBox="0 0 30.93 28.85">
  <defs>
    <style>
      .cls-1 {
        fill: #231f20;
      }
    </style>
  </defs>
  <title>calendar-view</title>
  <path class="cls-1" d="M455.91,333.25a1,1,0,0,1-1-1v-4.42a1,1,0,0,1,1.94,0v4.42A1,1,0,0,1,455.91,333.25Z" transform="translate(-437.56 -326.89)"/>
  <path class="cls-1" d="M445,333.25a1,1,0,0,1-1-1v-4.42a1,1,0,0,1,1.94,0v4.42A1,1,0,0,1,445,333.25Z" transform="translate(-437.56 -326.89)"/>
  <path class="cls-1" d="M447.57,352.67h-2v-4.11h2V347.3h-2v-4.11h2v-1.26h-2v-4.11h4.11v1.64H451v-1.64h4.11v1.64h1.26v-1.64h4.11v1.64h2.78v-9.4h-5.15v2.47a2.17,2.17,0,0,1-4.35,0v-2.47h-6.58v2.47a2.17,2.17,0,0,1-4.35,0v-2.47h-5.24v25.67h10v-3.07Zm-3.22,0h-4.11v-4.11h4.11v4.11Zm0-5.37h-4.11v-4.11h4.11v4.11Zm0-5.37h-4.11v-4.11h4.11v4.11Z" transform="translate(-437.56 -326.89)"/>
  <path d="M458.79,343.21c-6.37,0-9.71,4.69-9.71,5.44s3.34,5.44,9.71,5.44,9.71-4.69,9.71-5.44S465.16,343.21,458.79,343.21Zm0,9.62a4.18,4.18,0,1,1,4.32-4.18A4.25,4.25,0,0,1,458.79,352.82Z" transform="translate(-437.56 -326.89)"/>
  <path d="M458.79,348.64c-0.39-.43.64-2.09,0-2.09a2.09,2.09,0,1,0,2.16,2.09C460.95,348.11,459.12,349,458.79,348.64Z" transform="translate(-437.56 -326.89)"/>
</svg>
