<svg id="Layer_1" data-name="Layer 1" xmlns="http://www.w3.org/2000/svg" viewBox="0 0 25.67 28.85">
  <defs>
    <style>
      .cls-1 {
        fill: #231f20;
      }
    </style>
  </defs>
  <title>calendar-add</title>
  <path class="cls-1" d="M375.34,333.25a1,1,0,0,1-1-1v-4.42a1,1,0,0,1,1.94,0v4.42A1,1,0,0,1,375.34,333.25Z" transform="translate(-357 -326.89)"/>
  <path class="cls-1" d="M364.42,333.25a1,1,0,0,1-1-1v-4.42a1,1,0,0,1,1.94,0v4.42A1,1,0,0,1,364.42,333.25Z" transform="translate(-357 -326.89)"/>
  <path class="cls-1" d="M366.78,352.67H365v-4.11h1.73V347.3H365v-4.11h1.73v-1.26H365v-4.11h4.11v1.64h1.26v-1.64h4.11v1.64h1.26v-1.64h4.11v1.64h2.78v-9.4h-5.15v2.47a2.17,2.17,0,0,1-4.35,0v-2.47h-6.58v2.47a2.17,2.17,0,0,1-4.35,0v-2.47H357v25.67h9.78v-3.07Zm-3,0h-4.11v-4.11h4.11v4.11Zm0-5.37h-4.11v-4.11h4.11v4.11Zm0-5.37h-4.11v-4.11h4.11v4.11Z" transform="translate(-357 -326.89)"/>
  <path class="cls-1" d="M382.67,355.38h-13.6V341.79h13.6v13.59Zm-2.16-7.49h-3.94v-3.94h-1.4v3.94h-3.94v1.4h3.94v3.94h1.4v-3.94h3.94v-1.4Z" transform="translate(-357 -326.89)"/>
</svg>
