<svg id="Layer_1" data-name="Layer 1" xmlns="http://www.w3.org/2000/svg" viewBox="0 0 30.42 28.85">
  <defs>
    <style>
      .cls-1 {
        fill: #231f20;
      }
    </style>
  </defs>
  <title>calendar-arrows</title>
  <path class="cls-1" d="M416.06,333.25a1,1,0,0,1-1-1v-4.42a1,1,0,0,1,1.94,0v4.42A1,1,0,0,1,416.06,333.25Z" transform="translate(-397.72 -326.89)"/>
  <path class="cls-1" d="M405.13,333.25a1,1,0,0,1-1-1v-4.42a1,1,0,0,1,1.94,0v4.42A1,1,0,0,1,405.13,333.25Z" transform="translate(-397.72 -326.89)"/>
  <path class="cls-1" d="M407.72,352.67h-2v-4.11h2V347.3h-2v-4.11h2v-1.26h-2v-4.11h4.11v1.64h1.26v-1.64h4.11v1.64h1.26v-1.64h4.11v1.64h2.78v-9.4h-5.15v2.47a2.17,2.17,0,0,1-4.35,0v-2.47h-6.58v2.47a2.17,2.17,0,0,1-4.35,0v-2.47h-5.24v25.67h10v-3.07Zm-3.22,0H400.4v-4.11h4.11v4.11Zm0-5.37H400.4v-4.11h4.11v4.11Zm0-5.37H400.4v-4.11h4.11v4.11Z" transform="translate(-397.72 -326.89)"/>
  <g>
    <path d="M416.33,347.64h7.26v2.27a0.38,0.38,0,0,0,.38.38,0.37,0.37,0,0,0,.27-0.11L428,346.4a0.37,0.37,0,0,0,.11-0.27,0.36,0.36,0,0,0-.11-0.27l-3.77-3.78A0.44,0.44,0,0,0,424,342a0.37,0.37,0,0,0-.38.38v2.27h-7.26a0.38,0.38,0,0,0-.38.38v2.27a0.36,0.36,0,0,0,.11.27A0.36,0.36,0,0,0,416.33,347.64Z" transform="translate(-397.72 -326.89)"/>
    <path d="M421.25,349.87H414V347.6a0.38,0.38,0,0,0-.65-0.27l-3.79,3.79a0.37,0.37,0,0,0-.11.27,0.35,0.35,0,0,0,.11.26l3.78,3.79a0.44,0.44,0,0,0,.28.12,0.38,0.38,0,0,0,.38-0.38V352.9h7.26a0.38,0.38,0,0,0,.38-0.38v-2.27A0.38,0.38,0,0,0,421.25,349.87Z" transform="translate(-397.72 -326.89)"/>
  </g>
</svg>
