<svg id="Layer_1" data-name="Layer 1" xmlns="http://www.w3.org/2000/svg" viewBox="0 0 24.39 21.47">
  <defs>
    <style>
      .cls-1 {
        fill-rule: evenodd;
      }
    </style>
  </defs>
  <title>chart</title>
  <g>
    <path class="cls-1" d="M262.38,273.07a1.81,1.81,0,1,0,1.81,1.81A1.81,1.81,0,0,0,262.38,273.07Zm0,4.92a3.12,3.12,0,1,1,3.12-3.12A3.12,3.12,0,0,1,262.38,278Z" transform="translate(-259.26 -269.68)"/>
    <path class="cls-1" d="M272.35,278.07a1.81,1.81,0,1,0,1.81,1.81A1.81,1.81,0,0,0,272.35,278.07Zm0,4.93a3.12,3.12,0,1,1,3.12-3.12A3.12,3.12,0,0,1,272.35,283Z" transform="translate(-259.26 -269.68)"/>
    <path class="cls-1" d="M280.54,271a1.81,1.81,0,1,0,1.81,1.81A1.81,1.81,0,0,0,280.54,271Zm0,4.92a3.12,3.12,0,1,1,3.12-3.12A3.12,3.12,0,0,1,280.54,275.91Z" transform="translate(-259.26 -269.68)"/>
    <g>
      <line x1="5.19" y1="6.52" x2="10.85" y2="9.19"/>
      <rect x="266.63" y="274.4" width="1.31" height="6.26" transform="translate(-356.99 131.25) rotate(-64.76)"/>
    </g>
    <g>
      <line x1="14.85" y1="8.49" x2="19.45" y2="4.75"/>
      <rect x="273.45" y="275.64" width="5.93" height="1.31" transform="translate(-371.66 -33.02) rotate(-39.17)"/>
    </g>
    <rect x="0.71" y="10.48" width="1.31" height="10.99"/>
    <rect x="4.37" y="11.18" width="1.31" height="10.3"/>
    <rect x="8.03" y="13.6" width="1.31" height="7.87"/>
    <rect x="11.69" y="15.9" width="1.31" height="5.57"/>
    <rect x="15.35" y="15.9" width="1.31" height="5.57"/>
    <rect x="19.01" y="12.47" width="1.31" height="9"/>
    <rect x="22.67" y="9.49" width="1.31" height="11.98"/>
  </g>
</svg>
