<svg id="Layer_1" data-name="Layer 1" xmlns="http://www.w3.org/2000/svg" viewBox="0 0 15.46 16.37">
  <title>checklist</title>
  <g>
    <path d="M181.48,96.86V85.23h9.25V95l1.76-1.48V84.34a0.89,0.89,0,0,0-.88-0.9h-11a0.89,0.89,0,0,0-.88.9V97.75a0.89,0.89,0,0,0,.88.9h7.69L187,96.86h-5.56Z" transform="translate(-179.71 -83.44)"/>
    <path d="M195,93.06a0.43,0.43,0,0,0-.58,0l-4,3.39-2.69-1.64a0.43,0.43,0,0,0-.55.08,0.45,0.45,0,0,0,0,.56L190,99.62a0.44,0.44,0,0,0,.36.19h0a0.43,0.43,0,0,0,.35-0.18l4.33-6A0.45,0.45,0,0,0,195,93.06Z" transform="translate(-179.71 -83.44)"/>
    <path d="M188.75,86.57h-5.29a0.9,0.9,0,0,0,0,1.79h5.29A0.9,0.9,0,0,0,188.75,86.57Z" transform="translate(-179.71 -83.44)"/>
    <path d="M188.75,89.25h-5.29a0.9,0.9,0,0,0,0,1.79h5.29A0.9,0.9,0,0,0,188.75,89.25Z" transform="translate(-179.71 -83.44)"/>
    <path d="M188.75,91.93h-5.29a0.9,0.9,0,0,0,0,1.79h5.29A0.9,0.9,0,0,0,188.75,91.93Z" transform="translate(-179.71 -83.44)"/>
  </g>
</svg>
