<svg id="Layer_1" data-name="Layer 1" xmlns="http://www.w3.org/2000/svg" viewBox="0 0 14.55 14.54">
  <defs>
    <style>
      .cls-1 {
        fill-rule: evenodd;
      }
    </style>
  </defs>
  <title>connect</title>
  <path class="cls-1" d="M170.84,338.32a2.27,2.27,0,0,0-4.54,0,2.23,2.23,0,0,0,.84,1.74,8.27,8.27,0,0,1-4.08,2.54,1.52,1.52,0,1,0,0,1.56,8.24,8.24,0,0,1,4.06,2.51,2.23,2.23,0,0,0-.81,1.72,2.27,2.27,0,1,0,2.27-2.24,2.29,2.29,0,0,0-.59.08,8.05,8.05,0,0,0-3.07-2.38h5.33a2.24,2.24,0,1,0,0-.94h-5.31a8,8,0,0,0,3.08-2.41,2.22,2.22,0,0,0,.56.07A2.26,2.26,0,0,0,170.84,338.32Z" transform="translate(-160.19 -336.08)"/>
</svg>
