<svg id="Layer_1" data-name="Layer 1" xmlns="http://www.w3.org/2000/svg" viewBox="0 0 22.37 27.68">
  <defs>
    <style>
      .cls-1 {
        fill-rule: evenodd;
      }
    </style>
  </defs>
  <title>content-alert</title>
  <g>
    <path class="cls-1" d="M333.72,204.34V201l3.27,3.31h-3.27Zm0-4.79H322.07v21.16h16.3V204.26ZM332,216h-6.18a0.74,0.74,0,0,1,0-1.48H332A0.74,0.74,0,0,1,332,216Zm2.31-3.48h-8.49a0.74,0.74,0,0,1,0-1.48h8.49A0.74,0.74,0,0,1,334.36,212.5Zm0-3.49h-8.49a0.74,0.74,0,0,1,0-1.48h8.49A0.74,0.74,0,0,1,334.36,209Z" transform="translate(-316 -193.03)"/>
    <path d="M320.06,201.94h-3.33a0.74,0.74,0,0,1,0-1.48h3.33A0.74,0.74,0,0,1,320.06,201.94Z" transform="translate(-316 -193.03)"/>
    <path d="M323.63,197.89a0.74,0.74,0,0,1-.73-0.74v-3.38a0.73,0.73,0,1,1,1.46,0v3.38A0.74,0.74,0,0,1,323.63,197.89Z" transform="translate(-316 -193.03)"/>
    <path d="M320.36,198.57a0.71,0.71,0,0,1-.52-0.22L317.49,196a0.75,0.75,0,0,1,0-1,0.73,0.73,0,0,1,1,0l2.35,2.39a0.75,0.75,0,0,1,0,1A0.73,0.73,0,0,1,320.36,198.57Z" transform="translate(-316 -193.03)"/>
  </g>
</svg>
