<svg id="Layer_1" data-name="Layer 1" xmlns="http://www.w3.org/2000/svg" viewBox="0 0 32.73 29.09">
  <defs>
    <style>
      .cls-1 {
        fill-rule: evenodd;
      }
    </style>
  </defs>
  <title>content</title>
  <g>
    <path class="cls-1" d="M155.22,271.22v22.84h26.45V271.22H155.22Zm26.45,24.16H155.22a1.33,1.33,0,0,1-1.33-1.32V271.22a1.33,1.33,0,0,1,1.33-1.32h26.45a1.33,1.33,0,0,1,1.33,1.32v22.84A1.33,1.33,0,0,1,181.67,295.38Z" transform="translate(-153.89 -269.9)"/>
    <path d="M185.29,299H158.84a1.33,1.33,0,0,1-1.33-1.32h27.78V273.51a1.33,1.33,0,0,1,1.33,1.32v22.84A1.33,1.33,0,0,1,185.29,299Z" transform="translate(-153.89 -269.9)"/>
    <path class="cls-1" d="M163.11,274.15a2.06,2.06,0,1,0,2.07,2.06A2.07,2.07,0,0,0,163.11,274.15Zm0,5.44a3.38,3.38,0,1,1,3.4-3.38A3.39,3.39,0,0,1,163.11,279.58Z" transform="translate(-153.89 -269.9)"/>
    <polygon points="22.32 25.29 9.57 12.78 1.08 19.65 0.24 18.63 9.66 11 23.25 24.35 22.32 25.29"/>
    <polygon points="13.79 15.9 12.94 14.88 21.94 7.44 28.89 13.89 27.99 14.85 21.89 9.2 13.79 15.9"/>
  </g>
</svg>
