<svg id="Layer_1" data-name="Layer 1" xmlns="http://www.w3.org/2000/svg" viewBox="0 0 12.73 14.54">
  <defs>
    <style>
      .cls-1 {
        fill-rule: evenodd;
      }
    </style>
  </defs>
  <title>edit</title>
  <g>
    <path class="cls-1" d="M229.25,338.74V336.9l1.88,1.84h-1.87Zm0.37,2.59h-4.88a0.41,0.41,0,1,1,0-.82h4.88A0.41,0.41,0,1,1,229.62,341.32Zm-0.38-5.24h-6.67v3.77l2.64,2.58h4.42a0.41,0.41,0,1,1,0,.82H226l3.88,3.8,0.21,0.75h1.79v-9.12Z" transform="translate(-219.19 -336.08)"/>
    <path class="cls-1" d="M226.49,349.25a2,2,0,0,1,.7-1.26,2.1,2.1,0,0,1,1.29-.68l0.32,0.32,0.24,1.09a2.69,2.69,0,0,0-.64.46,2.55,2.55,0,0,0-.47.63l-1.11-.23Zm-7.29-6.56,3.46,3.39,4,3.87,3.26,0.68-0.69-3.2-4-3.87-3.46-3.39A2.14,2.14,0,0,0,220,341,2.07,2.07,0,0,0,219.2,342.69Z" transform="translate(-219.19 -336.08)"/>
  </g>
</svg>
