<svg id="Layer_1" data-name="Layer 1" xmlns="http://www.w3.org/2000/svg" viewBox="0 0 23.64 21.82">
  <defs>
    <style>
      .cls-1 {
        fill-rule: evenodd;
      }
    </style>
  </defs>
  <title>export</title>
  <path class="cls-1" d="M373.33,88a1.37,1.37,0,0,1-1-.45l-1.71-1.9V93.9a1.36,1.36,0,1,1-2.73,0V85.63l-1.71,1.9a1.36,1.36,0,0,1-2.38-.91,1.35,1.35,0,0,1,.35-0.91l4.09-4.54a1.36,1.36,0,0,1,2,0l4.09,4.54A1.37,1.37,0,0,1,373.33,88Zm6.36,14.54H358.78a1.36,1.36,0,0,1-1.36-1.36V94.35a1.36,1.36,0,1,1,2.73,0v5.46h18.18V94.35a1.36,1.36,0,1,1,2.73,0v6.82A1.36,1.36,0,0,1,379.69,102.53Z" transform="translate(-357.42 -80.71)"/>
</svg>
