<svg id="Layer_1" data-name="Layer 1" xmlns="http://www.w3.org/2000/svg" viewBox="0 0 18.18 18.18">
  <title>idea</title>
  <g>
    <g>
      <rect x="6.72" y="14.19" width="4.79" height="1.17"/>
      <path d="M257,352.44a2.39,2.39,0,0,0,2.36-1.93h-4.71A2.39,2.39,0,0,0,257,352.44Z" transform="translate(-247.87 -334.26)"/>
    </g>
    <g>
      <path d="M257,344.48a0.68,0.68,0,0,0-.68.68v2.79a4.28,4.28,0,0,0,1.36,0v-2.79A0.68,0.68,0,0,0,257,344.48Z" transform="translate(-247.87 -334.26)"/>
      <path d="M257,338.33a4.83,4.83,0,0,0-1.48,9.44V345a1.48,1.48,0,0,1,3,0v2.73A4.83,4.83,0,0,0,257,338.33Z" transform="translate(-247.87 -334.26)"/>
    </g>
    <path d="M257,337.55a0.44,0.44,0,0,1-.43-0.43v-2.42a0.44,0.44,0,0,1,.87,0v2.42A0.44,0.44,0,0,1,257,337.55Z" transform="translate(-247.87 -334.26)"/>
    <path d="M265.62,343.87h-2.45a0.43,0.43,0,1,1,0-.86h2.45A0.43,0.43,0,1,1,265.62,343.87Z" transform="translate(-247.87 -334.26)"/>
    <path d="M250.76,343.87h-2.45a0.43,0.43,0,1,1,0-.86h2.45A0.43,0.43,0,1,1,250.76,343.87Z" transform="translate(-247.87 -334.26)"/>
    <path d="M251.57,340.8a0.39,0.39,0,0,1-.22-0.06l-2.12-1.2a0.43,0.43,0,0,1-.16-0.59,0.44,0.44,0,0,1,.6-0.16l2.12,1.2A0.43,0.43,0,0,1,251.57,340.8Z" transform="translate(-247.87 -334.26)"/>
    <path d="M253.66,338.64a0.44,0.44,0,0,1-.37-0.2l-1.3-2.05a0.43,0.43,0,0,1,.74-0.46L254,338a0.43,0.43,0,0,1-.14.6A0.45,0.45,0,0,1,253.66,338.64Z" transform="translate(-247.87 -334.26)"/>
    <path d="M262.36,340.8a0.43,0.43,0,0,1-.22-0.81l2.12-1.2a0.44,0.44,0,0,1,.6.16,0.43,0.43,0,0,1-.16.59l-2.12,1.2A0.4,0.4,0,0,1,262.36,340.8Z" transform="translate(-247.87 -334.26)"/>
    <path d="M260.27,338.64a0.45,0.45,0,0,1-.23-0.07,0.43,0.43,0,0,1-.14-0.6l1.3-2.06a0.43,0.43,0,0,1,.74.46l-1.3,2.05A0.44,0.44,0,0,1,260.27,338.64Z" transform="translate(-247.87 -334.26)"/>
  </g>
</svg>
