<svg id="Layer_1" data-name="Layer 1" xmlns="http://www.w3.org/2000/svg" viewBox="0 0 24.54 20">
  <defs>
    <style>
      .cls-1 {
        fill-rule: evenodd;
      }
    </style>
  </defs>
  <title>itemlist</title>
  <g>
    <path class="cls-1" d="M303.25,277.25a1.67,1.67,0,1,0,1.69,1.67A1.68,1.68,0,0,0,303.25,277.25Zm0,4.54a2.88,2.88,0,1,1,2.92-2.88A2.9,2.9,0,0,1,303.25,281.79Z" transform="translate(-300.33 -269.81)"/>
    <path class="cls-1" d="M303.25,285.27a1.67,1.67,0,1,0,1.69,1.67A1.68,1.68,0,0,0,303.25,285.27Zm0,4.54a2.88,2.88,0,1,1,2.92-2.88A2.9,2.9,0,0,1,303.25,289.81Z" transform="translate(-300.33 -269.81)"/>
    <path d="M324.87,272.83a2.18,2.18,0,0,1-2.19,2.16h-12a2.18,2.18,0,0,1-2.19-2.16V272.6a2.17,2.17,0,0,1,2.19-2.16h12a2.18,2.18,0,0,1,2.19,2.16v0.23Z" transform="translate(-300.33 -269.81)"/>
    <path d="M324.87,279.94a2.18,2.18,0,0,1-2.19,2.16h-12a2.17,2.17,0,0,1-2.19-2.16v-0.23a2.17,2.17,0,0,1,2.19-2.16h12a2.18,2.18,0,0,1,2.19,2.16v0.23Z" transform="translate(-300.33 -269.81)"/>
    <path d="M324.87,286.15a2.18,2.18,0,0,1-2.19,2.16h-12a2.17,2.17,0,0,1-2.19-2.16v-0.23a2.17,2.17,0,0,1,2.19-2.15h12a2.18,2.18,0,0,1,2.19,2.15v0.23Z" transform="translate(-300.33 -269.81)"/>
    <polygon points="2.72 5.54 0.07 3.41 0.84 2.47 2.48 3.79 5.25 0 6.25 0.71 2.72 5.54"/>
  </g>
</svg>
