<svg id="Layer_1" data-name="Layer 1" xmlns="http://www.w3.org/2000/svg" viewBox="0 0 24.36 24.32">
  <defs>
    <style>
      .cls-1 {
        fill-rule: evenodd;
      }
    </style>
  </defs>
  <title>joomla</title>
  <g>
    <path class="cls-1" d="M706.25,334.31a3.24,3.24,0,0,1,3.22-2.76,3.2,3.2,0,0,1,3.22,2.84,3.29,3.29,0,0,1-2.77,3.66,2.92,2.92,0,0,1,.13.62q0,0.94-.08,1.88a4.28,4.28,0,0,1-.84,2.06,8.32,8.32,0,0,1-.63.75,0.2,0.2,0,0,1-.34,0c-0.68-.69-1.36-1.37-2-2a0.22,0.22,0,0,1,0-.37,2,2,0,0,0-.7-3.26,1.83,1.83,0,0,0-1.7.13,6.34,6.34,0,0,0-.92.81c-0.93.92-1.85,1.85-2.77,2.77-0.62.63-1.26,1.24-1.88,1.88a0.3,0.3,0,0,1-.53,0c-0.61-.63-1.23-1.27-1.87-1.87a0.31,0.31,0,0,1,0-.54c1.55-1.54,3.11-3.08,4.65-4.63a7,7,0,0,1,2.23-1.67,5.21,5.21,0,0,1,2.44-.38C705.46,334.2,705.85,334.26,706.25,334.31Z" transform="translate(-688.41 -331.55)"/>
    <path class="cls-1" d="M710.14,348.15c-0.06.35-.12,0.69-0.16,1a0.32,0.32,0,0,0,.2.22,3.38,3.38,0,0,1,1.9,1.23,3.26,3.26,0,0,1-4.37,4.71,2.88,2.88,0,0,1-1.29-1.7,0.37,0.37,0,0,0-.49-0.31,9.49,9.49,0,0,1-1.86.11,5.16,5.16,0,0,1-3.2-1.55,0.19,0.19,0,0,1,0-.33c0.68-.68,1.36-1.37,2-2.05a0.23,0.23,0,0,1,.39,0,1.94,1.94,0,0,0,1.56.57,2,2,0,0,0,1.69-1.24,1.86,1.86,0,0,0-.4-2.09q-1.13-1.16-2.28-2.31l-3-3a0.24,0.24,0,0,1,0-.39c0.69-.67,1.38-1.35,2.06-2,0.22-.22.33,0,0.42,0.08,0.63,0.62,1.24,1.25,1.86,1.88,1.08,1.09,2.17,2.18,3.26,3.26a5.47,5.47,0,0,1,1.41,2.38A10.06,10.06,0,0,1,710.14,348.15Z" transform="translate(-688.41 -331.55)"/>
    <path class="cls-1" d="M694.94,334.22c0.22,0,.44,0,0.66,0a9.35,9.35,0,0,1,1.55,0,5.11,5.11,0,0,1,2.83,1.5,0.35,0.35,0,0,1,0,.34c-0.7.72-1.41,1.42-2.12,2.12l-0.1.08a1.21,1.21,0,0,1-.15-0.12,2,2,0,0,0-2-.54,1.71,1.71,0,0,0-1.27,1.06,2,2,0,0,0,.48,2.37c1.49,1.47,3,3,4.44,4.43,0.22,0.22.44,0.45,0.67,0.67a0.24,0.24,0,0,1,0,.41c-0.68.67-1.36,1.34-2,2-0.21.21-.32,0-0.43-0.06-0.85-.84-1.69-1.68-2.53-2.53l-2.63-2.64a5.38,5.38,0,0,1-1.5-4.79,1.15,1.15,0,0,0,.07-0.53,1,1,0,0,0-.46-0.21,3.26,3.26,0,1,1,4.24-4.3C694.78,333.73,694.85,334,694.94,334.22Z" transform="translate(-688.41 -331.55)"/>
    <path class="cls-1" d="M703,344.08l2.44,2.47c-0.43.4-.85,0.78-1.26,1.18-1.45,1.44-2.88,2.9-4.35,4.31a5.25,5.25,0,0,1-4.47,1.39,0.93,0.93,0,0,1-.21-0.06,0.24,0.24,0,0,0-.35.19,3.25,3.25,0,0,1-6.09.3,3.22,3.22,0,0,1,1.21-4,3.32,3.32,0,0,1,.72-0.35,0.31,0.31,0,0,0,.24-0.41,5.4,5.4,0,0,1,1.18-4.52c0.1-.12.21-0.24,0.33-0.35a1.39,1.39,0,0,1,.18-0.12l2.29,2.35a5.27,5.27,0,0,0-.52.9A1.92,1.92,0,0,0,695.5,350a1.94,1.94,0,0,0,2.15-.54c1.7-1.7,3.4-3.39,5.11-5.09C702.82,344.27,702.87,344.2,703,344.08Z" transform="translate(-688.41 -331.55)"/>
  </g>
</svg>
