<svg id="Layer_1" data-name="Layer 1" xmlns="http://www.w3.org/2000/svg" viewBox="0 0 22.02 22.48">
  <defs>
    <style>
      .cls-1 {
        fill-rule: evenodd;
      }
    </style>
  </defs>
  <title>key</title>
  <path class="cls-1" d="M260.94,85.58a1.38,1.38,0,1,1,0-1.93A1.43,1.43,0,0,1,260.94,85.58Zm3.28-4.24a1.16,1.16,0,0,1-1.11-.17,4.5,4.5,0,0,0-5.77.6,4.56,4.56,0,0,0-.57,5.79,1,1,0,0,1,0,.8,4.35,4.35,0,0,0,1,5,4.42,4.42,0,0,0,5.11.34c0.5-.28.95-0.66,1.47-1,1,1,2.11,2,3.09,3.12a2.25,2.25,0,0,0,2.48.95,0.31,0.31,0,0,1,.17,0,7.23,7.23,0,0,0,.25,1.86,1.29,1.29,0,0,0,1.74.61c-0.34,2.18,1.13,1.82,2.37,1.74l-0.12,1.94c1.1-.06,2.11-0.13,3.12-0.16a0.46,0.46,0,0,0,.52-0.55c0-.77,0-1.55,0-2.32a1.44,1.44,0,0,0-.48-1.18q-4.56-4.53-9.1-9.09L267.92,89c0.33-.42.61-0.75,0.86-1.11a4.56,4.56,0,0,0,.06-5.2A4.18,4.18,0,0,0,264.22,81.34Z" transform="translate(-255.99 -80.38)"/>
</svg>
