<svg id="Layer_1" data-name="Layer 1" xmlns="http://www.w3.org/2000/svg" viewBox="0 0 19.88 19.88">
  <title>link</title>
  <g>
    <path d="M379.61,140.47l-1.9,1.9a5.11,5.11,0,0,1-7.23-7.22l3.51-3.51a5.09,5.09,0,0,1,7.18,0,1.25,1.25,0,1,1-1.77,1.77,2.56,2.56,0,0,0-3.62,0l-3.51,3.51a2.57,2.57,0,0,0,3.64,3.64l1.91-1.9A1.27,1.27,0,0,1,379.61,140.47Z" transform="translate(-369.02 -123.95)"/>
    <path d="M387.43,132.64l-3.51,3.51a5.08,5.08,0,0,1-7.18,0,1.25,1.25,0,1,1,1.77-1.77,2.56,2.56,0,0,0,3.62,0l3.51-3.51a2.57,2.57,0,0,0-3.63-3.64l-1.91,1.9a1.27,1.27,0,0,1-1.79-1.79l1.9-1.91A5.11,5.11,0,0,1,387.43,132.64Z" transform="translate(-369.02 -123.95)"/>
  </g>
</svg>
