<svg id="Layer_1" data-name="Layer 1" xmlns="http://www.w3.org/2000/svg" viewBox="0 0 19.64 19.63">
  <defs>
    <style>
      .cls-1 {
        fill-rule: evenodd;
      }
    </style>
  </defs>
  <title>linkedin-mini</title>
  <g>
    <polygon points="10.56 8.85 10.56 8.83 10.54 8.85 10.56 8.85"/>
    <path class="cls-1" d="M502.67,48.28h-3V43.54c0-1.19-.43-2-1.5-2a1.62,1.62,0,0,0-1.52,1.08,2,2,0,0,0-.1.72v5h-3s0-8,0-8.86h3v1.25a3,3,0,0,1,2.68-1.47c1.95,0,3.41,1.27,3.41,4v5.08ZM490.5,38.2h0a1.54,1.54,0,1,1,1.7-1.53,1.53,1.53,0,0,1-1.7,1.53ZM492,48.28h-3V39.42h3v8.86Zm12.23-16.44H487.48A1.43,1.43,0,0,0,486,33.25V50.07a1.43,1.43,0,0,0,1.45,1.41h16.73a1.43,1.43,0,0,0,1.45-1.41V33.25A1.43,1.43,0,0,0,504.21,31.85Z" transform="translate(-486.03 -31.85)"/>
  </g>
</svg>
