<svg id="Layer_1" data-name="Layer 1" xmlns="http://www.w3.org/2000/svg" viewBox="0 0 32.45 16.37">
  <title>navigation-users</title>
  <g>
    <g>
      <path d="M42.07,287.07a3.53,3.53,0,0,0,3.26-3.75c0-2.88-1.46-3.76-3.26-3.76s-3.26.88-3.26,3.76A3.53,3.53,0,0,0,42.07,287.07Z" transform="translate(-34.8 -279.56)"/>
      <path d="M60,287.07a3.53,3.53,0,0,1-3.26-3.75c0-2.88,1.46-3.76,3.26-3.76s3.26,0.88,3.26,3.76A3.53,3.53,0,0,1,60,287.07Z" transform="translate(-34.8 -279.56)"/>
      <path d="M47.25,288.56l-2.55-1.31a0.17,0.17,0,0,0-.18,0,4.07,4.07,0,0,1-4.91,0,0.17,0.17,0,0,0-.18,0l-2.55,1.31a0.83,0.83,0,0,0-.37.39l-1.64,3.65a0.79,0.79,0,0,0,.07.77,0.82,0.82,0,0,0,.69.37H43l1.38-3.25,0.51-.61Z" transform="translate(-34.8 -279.56)"/>
      <path d="M54.8,288.56l2.55-1.31a0.17,0.17,0,0,1,.18,0,4.07,4.07,0,0,0,4.91,0,0.17,0.17,0,0,1,.18,0l2.55,1.31a0.82,0.82,0,0,1,.37.39l1.64,3.65a0.78,0.78,0,0,1-.06.77,0.82,0.82,0,0,1-.69.37H59.05l-1.38-3.25-0.51-.61Z" transform="translate(-34.8 -279.56)"/>
    </g>
    <g>
      <path d="M51.17,289.26a3.53,3.53,0,0,0,3.26-3.76c0-2.87-1.46-3.75-3.26-3.75s-3.26.88-3.26,3.75A3.54,3.54,0,0,0,51.17,289.26Z" transform="translate(-34.8 -279.56)"/>
      <path d="M58.37,294.78l-1.64-3.65a0.82,0.82,0,0,0-.37-0.39l-2.55-1.31a0.17,0.17,0,0,0-.17,0,4.07,4.07,0,0,1-4.91,0,0.17,0.17,0,0,0-.18,0L46,290.75a0.83,0.83,0,0,0-.37.39L44,294.78a0.81,0.81,0,0,0,.06.77,0.83,0.83,0,0,0,.69.37H57.62a0.83,0.83,0,0,0,.69-0.37A0.79,0.79,0,0,0,58.37,294.78Z" transform="translate(-34.8 -279.56)"/>
    </g>
  </g>
</svg>
