<svg id="Layer_1" data-name="Layer 1" xmlns="http://www.w3.org/2000/svg" viewBox="0 0 23.63 25.46">
  <defs>
    <style>
      .cls-1 {
        fill-rule: evenodd;
      }
    </style>
  </defs>
  <title>navigation-calendar</title>
  <path class="cls-1" d="M56.63,216.64h0v-1.53c0-1,0-1-1.06-1H55.35a0.51,0.51,0,0,0-.56.58c0,1.27,0,2.55,0,3.82a0.55,0.55,0,0,0,.6.62h0.55a0.58,0.58,0,0,0,.69-0.69C56.61,217.84,56.63,217.24,56.63,216.64Zm-12.73,0h0v1.74c0,0.68.12,0.79,0.85,0.79s1-.12,1-0.78q0-1.74,0-3.48c0-.65-0.12-0.76-0.76-0.78H44.49a0.51,0.51,0,0,0-.59.6C43.91,215.33,43.9,216,43.9,216.6Zm0.41,19.3v-4h-4v4h4Zm11.91-4v4h4v-4h-4ZM44.33,221.39h-4v4.06h4v-4.06Zm15.94,4.07v-4.07h-4v4.07h4Zm-9.55,10.41h4.53v-4H50.71v4Zm-0.93,0v-4H45.27v4h4.51Zm-5.46-5v-4.5h-4v4.5h4Zm16-4.51H56.2v4.49h4.06v-4.49Zm-5-1v-4.07H50.73v4.07h4.51Zm-10,0h4.51v-4.06H45.27v4.06Zm4.52,5.47v-4.5h-4.5v4.5h4.5Zm0.93,0h4.52v-4.48H50.72v4.48Zm9.93,6.85H39.86a2.39,2.39,0,0,1-1.42-1.42v-19a2.13,2.13,0,0,1,2.38-1.38c0.41,0,.82,0,1.28,0-0.13-1.69,0-3.16,1.92-3.65h1.64c1.87,0.55,2,2,1.85,3.65h5.38a16.22,16.22,0,0,1,.32-2.27,2.26,2.26,0,0,1,1.64-1.38H56.6c1.84,0.56,2,2,1.83,3.65,0.5,0,.92,0,1.33,0a2.07,2.07,0,0,1,2.31,1.38v19A2.29,2.29,0,0,1,60.65,237.74Z" transform="translate(-38.44 -212.28)"/>
</svg>
