<svg id="Layer_1" data-name="Layer 1" xmlns="http://www.w3.org/2000/svg" viewBox="0 0 22.73 21.82">
  <title>navigation-chart</title>
  <g>
    <rect y="10.41" width="6.52" height="11.41" rx="1.33" ry="1.33"/>
    <path d="M54,48.22a1.33,1.33,0,0,1-1.33,1.33H48.77a1.33,1.33,0,0,1-1.33-1.33V36.07a1.33,1.33,0,0,1,1.33-1.33h3.86A1.33,1.33,0,0,1,54,36.07V48.22Z" transform="translate(-39.35 -27.73)"/>
    <path d="M62.07,48.22a1.33,1.33,0,0,1-1.33,1.33H56.88a1.33,1.33,0,0,1-1.33-1.33V29.06a1.33,1.33,0,0,1,1.33-1.33h3.86a1.33,1.33,0,0,1,1.33,1.33V48.22Z" transform="translate(-39.35 -27.73)"/>
  </g>
</svg>
