<svg id="Layer_1" data-name="Layer 1" xmlns="http://www.w3.org/2000/svg" viewBox="0 0 16.36 16.36">
  <defs>
    <style>
      .cls-1 {
        fill-rule: evenodd;
      }
    </style>
  </defs>
  <title>question</title>
  <path class="cls-1" d="M483.6,90.79a5.25,5.25,0,0,1-1,.88l-0.5.35a1.34,1.34,0,0,0-.5.61,1.22,1.22,0,0,0-.08.51v0.08h-1.91V93.05a2.09,2.09,0,0,1,.31-1.37,8.11,8.11,0,0,1,1.43-1.14,1.48,1.48,0,0,0,.33-0.35,1.2,1.2,0,0,0,.29-0.71,1.34,1.34,0,0,0-.26-0.81,1.08,1.08,0,0,0-.94-0.36,1,1,0,0,0-1,.44,1.77,1.77,0,0,0-.29,1v0.08h-2V89.7a3,3,0,0,1,1.28-2.58,3.37,3.37,0,0,1,1.85-.48,4,4,0,0,1,2.39.69,2.39,2.39,0,0,1,1,2.06A2.34,2.34,0,0,1,483.6,90.79Zm-2.92,5.81h0a1.15,1.15,0,0,1-1.17-1.22,1.17,1.17,0,0,1,1.19-1.16h0A1.19,1.19,0,1,1,480.68,96.6Zm0-13.16A8.18,8.18,0,1,0,489,91.51,8.18,8.18,0,0,0,480.7,83.44Z" transform="translate(-472.63 -83.44)"/>
</svg>
