<svg id="Layer_1" data-name="Layer 1" xmlns="http://www.w3.org/2000/svg" viewBox="0 0 27.28 27.27">
  <defs>
    <style>
      .cls-1 {
        fill-rule: evenodd;
      }
    </style>
  </defs>
  <title>social-tw</title>
  <path class="cls-1" d="M188.71,25.91a13.64,13.64,0,1,0,13.64,13.64A13.64,13.64,0,0,0,188.71,25.91Zm7.41,10.67c0,0.15,0,.3,0,0.45a9.62,9.62,0,0,1-9.55,9.8,9.34,9.34,0,0,1-5.14-1.55,6.86,6.86,0,0,0,.8,0,6.65,6.65,0,0,0,4.17-1.48,3.37,3.37,0,0,1-3.14-2.39,3.42,3.42,0,0,0,.63.06,3.19,3.19,0,0,0,.88-0.12A3.42,3.42,0,0,1,182.1,38v0a3.26,3.26,0,0,0,1.52.43,3.51,3.51,0,0,1-1-4.6,9.45,9.45,0,0,0,6.92,3.6,3.5,3.5,0,0,1-.09-0.78,3.4,3.4,0,0,1,3.36-3.44,3.32,3.32,0,0,1,2.45,1.09,6.68,6.68,0,0,0,2.13-.83,3.43,3.43,0,0,1-1.48,1.9,6.41,6.41,0,0,0,1.93-.54A6.86,6.86,0,0,1,196.13,36.58Z" transform="translate(-175.07 -25.91)"/>
</svg>
