<svg id="Layer_1" data-name="Layer 1" xmlns="http://www.w3.org/2000/svg" viewBox="0 0 30.29 30.29">
  <defs>
    <style>
      .cls-1 {
        fill-rule: evenodd;
      }
    </style>
  </defs>
  <title>spaceship-circle</title>
  <g>
    <path class="cls-1" d="M465.65,196.67a15.14,15.14,0,1,0,15.14,15.14A15.16,15.16,0,0,0,465.65,196.67Zm0,29.09a13.94,13.94,0,1,1,13.94-13.94A14,14,0,0,1,465.65,225.76Z" transform="translate(-450.51 -196.67)"/>
    <g>
      <path class="cls-1" d="M465.61,210.89a1.78,1.78,0,1,1,1.82-1.78A1.8,1.8,0,0,1,465.61,210.89Zm0-7.85a9.52,9.52,0,0,0,0,15.8A9.52,9.52,0,0,0,465.61,203Z" transform="translate(-450.51 -196.67)"/>
      <g>
        <path d="M471.25,220.6h0.25v-3.24a4.89,4.89,0,0,0-1.59-3.6,10.46,10.46,0,0,1-1.85,3.7A5,5,0,0,1,471.25,220.6Z" transform="translate(-450.51 -196.67)"/>
        <path d="M460.06,220.6a5,5,0,0,1,3.11-3.11,10.54,10.54,0,0,1-1.84-3.67,4.9,4.9,0,0,0-1.53,3.54v3.24h0.26Z" transform="translate(-450.51 -196.67)"/>
      </g>
    </g>
  </g>
</svg>
