<svg id="Layer_1" data-name="Layer 1" xmlns="http://www.w3.org/2000/svg" viewBox="0 0 18.1 27.16">
  <defs>
    <style>
      .cls-1 {
        fill-rule: evenodd;
      }
    </style>
  </defs>
  <title>spaceship</title>
  <g>
    <path class="cls-1" d="M376,209.7a2.75,2.75,0,1,1,2.81-2.75A2.78,2.78,0,0,1,376,209.7Zm0-12.14A14.72,14.72,0,0,0,376,222,14.72,14.72,0,0,0,376,197.56Z" transform="translate(-367.04 -197.56)"/>
    <g>
      <path d="M384.75,224.71h0.39v-5a7.56,7.56,0,0,0-2.45-5.57,16.16,16.16,0,0,1-2.86,5.73A7.8,7.8,0,0,1,384.75,224.71Z" transform="translate(-367.04 -197.56)"/>
      <path d="M367.44,224.71a7.79,7.79,0,0,1,4.81-4.81,16.3,16.3,0,0,1-2.85-5.68,7.58,7.58,0,0,0-2.36,5.48v5h0.4Z" transform="translate(-367.04 -197.56)"/>
    </g>
  </g>
</svg>
