<svg id="Layer_1" data-name="Layer 1" xmlns="http://www.w3.org/2000/svg" viewBox="0 0 22.33 22.4">
  <defs>
    <style>
      .cls-1 {
        fill-rule: evenodd;
      }
    </style>
  </defs>
  <title>trello</title>
  <path class="cls-1" d="M567.16,343.46q0,4.85,0,9.71c0,1.12-.29,1.41-1.44,1.41H546.3a3.29,3.29,0,0,1-.67,0,0.91,0.91,0,0,1-.78-0.88,6.49,6.49,0,0,1,0-.68v-19.2c0-.2,0-0.4,0-0.6a1,1,0,0,1,.94-1,3.37,3.37,0,0,1,.45,0h19.5a3.14,3.14,0,0,1,.6,0,0.93,0.93,0,0,1,.82.93c0,0.22,0,.45,0,0.68Q567.16,338.64,567.16,343.46Zm-12.09-.9q0-3.5,0-7c0-.91-0.1-1-1-1h-5.94c-0.9,0-1,.08-1,1q0,6.92,0,13.83c0,0.88.11,1,1,1H554c0.92,0,1-.11,1-1Q555.07,345.94,555.07,342.56Zm1.86-2.89c0,1.38,0,2.76,0,4.14,0,0.84.12,1,1,1h6c0.81,0,.93-0.12.93-0.91q0-4.22,0-8.43c0-.76-0.12-0.87-0.87-0.88h-6c-0.94,0-1,.08-1,1C556.92,337,556.93,338.31,556.93,339.67Z" transform="translate(-544.83 -332.18)"/>
</svg>
