<?xml version="1.0" ?><!DOCTYPE svg  PUBLIC '-//W3C//DTD SVG 1.1//EN'  'http://www.w3.org/Graphics/SVG/1.1/DTD/svg11.dtd'><svg enable-background="new 0 0 50 50" id="Layer_1" version="1.1" viewBox="0 0 50 50" xml:space="preserve" xmlns="http://www.w3.org/2000/svg" xmlns:xlink="http://www.w3.org/1999/xlink"><g id="Box"><polygon fill="#1081DE" points="25,28.3 19,33 16,31 16,34 25,39 34,34 34,31 31,33  "/><polygon fill="#1081DE" points="40,26 31,32 25,27 34,22  "/><polygon fill="#1081DE" points="19,11 10,17.1 16,22 25,16  "/><polygon fill="#1081DE" points="40,17 31,11 25,16 34,22  "/><polygon fill="#1081DE" points="10,26 19,32 25,27 16,22  "/></g><path d="M25,1C11.7,1,1,11.7,1,25s10.7,24,24,24s24-10.7,24-24S38.3,1,25,1z M25,44C14.5,44,6,35.5,6,25S14.5,6,25,6  s19,8.5,19,19S35.5,44,25,44z" fill="#1081DE"/></svg>