<svg id="Layer_1" data-name="Layer 1" xmlns="http://www.w3.org/2000/svg" viewBox="0 0 191.5 29.04">
  <defs>
    <style>
      .cls-1 {
        fill: #6944b7;
      }

      .cls-1, .cls-2 {
        fill-rule: evenodd;
      }

      .cls-2 {
        fill: #2482ff;
      }
    </style>
  </defs>
  <title>logo</title>
  <g>
    <path class="cls-1" d="M336.08,285.42l0,5.76c0,0.16,0,.32,0,0.53l-1.13-.31c-7.81-1.93-15.15-.9-21.8,3.76A17.72,17.72,0,0,0,306,305a15.62,15.62,0,0,0,0,8.84,0.21,0.21,0,0,1,0,.2c-0.18-.46-0.38-0.9-0.53-1.37a16.16,16.16,0,0,1,3.06-16,22.11,22.11,0,0,1,11.92-7.34l0.61-.17a24.36,24.36,0,0,0-9.36,2.59,21.71,21.71,0,0,0-7.49,6.17c0-.22,0-0.34,0-0.45q0-5.84,0-11.68c0-.1,0-0.2,0-0.3h32Z" transform="translate(-304.09 -285.42)"/>
    <path class="cls-2" d="M495.59,314.14c-0.94,0-1.88,0-2.82,0a0.38,0.38,0,0,1-.47-0.46c0-2,0-4,0-6.07a3.39,3.39,0,0,0-2.71-3.39,3.35,3.35,0,0,0-4,2.75,7.77,7.77,0,0,0-.07,1c0,1.91,0,3.82,0,5.73a0.35,0.35,0,0,1-.43.42c-0.83,0-1.66,0-2.49,0a0.29,0.29,0,0,1-.35-0.34q0-7.91,0-15.82a0.3,0.3,0,0,1,.37-0.37c0.84,0,1.68,0,2.52,0,0.32,0,.38.13,0.38,0.4,0,1.09,0,2.19,0,3.28,0,0.13,0,.27,0,0.47l0.48-.19a6.63,6.63,0,0,1,7.63,1.36,6.34,6.34,0,0,1,1.82,3.84,1.75,1.75,0,0,0,.09.32v7.09Z" transform="translate(-304.09 -285.42)"/>
    <path class="cls-1" d="M344,294.49c-1.37.07-2.66,0.11-4,.21s-2.57.26-3.89,0.4v19.32h-0.51c-4.83,0-9.67,0-14.5,0a2,2,0,0,1-1.88-1,11.45,11.45,0,0,1-2-6.41,11.27,11.27,0,0,1,2.63-7.21,17.17,17.17,0,0,1,8.1-5.53,23.59,23.59,0,0,1,15.8.1Z" transform="translate(-304.09 -285.42)"/>
    <path class="cls-2" d="M394,305.88a2.82,2.82,0,0,0-1.21-1.28,3.25,3.25,0,0,0-3.47,0,3.21,3.21,0,0,0-1.6,3,3.36,3.36,0,0,0,3.34,3.22c2.08,0,4.17,0,6.26,0a0.35,0.35,0,0,1,.43.43c0,0.83,0,1.66,0,2.49a0.29,0.29,0,0,1-.35.35c-2.24,0-4.48.08-6.71,0a6.61,6.61,0,1,1,7-7.52,22.45,22.45,0,0,1,.09,2.25c0,0.26-.1.32-0.34,0.32h-7.54c-0.32,0-.38-0.13-0.37-0.41,0-.82,0-1.63,0-2.45a0.34,0.34,0,0,1,.41-0.41c1.21,0,2.41,0,3.62,0H394Z" transform="translate(-304.09 -285.42)"/>
    <path class="cls-2" d="M440.18,313.27l-0.41.17a6.61,6.61,0,1,1,3.69-6.68,8.41,8.41,0,0,1,0,1c0,2,0,3.94,0,5.92,0,0.34-.08.47-0.44,0.46q-1.17,0-2.34,0c-0.37,0-.55-0.07-0.49-0.47A1.85,1.85,0,0,0,440.18,313.27Zm0-5.77a3.37,3.37,0,0,0-6.74-.07,3.45,3.45,0,0,0,3.09,3.43A3.39,3.39,0,0,0,440.23,307.5Z" transform="translate(-304.09 -285.42)"/>
    <path class="cls-2" d="M364,307.51a6.61,6.61,0,1,1-6.61-6.63A6.63,6.63,0,0,1,364,307.51Zm-6.62,3.34a3.37,3.37,0,1,0-3.35-3.39A3.36,3.36,0,0,0,357.33,310.86Z" transform="translate(-304.09 -285.42)"/>
    <path class="cls-2" d="M398.21,310.26c0-.94,0-1.88,0-2.83a6.61,6.61,0,0,1,13.13-1.08,6,6,0,0,1,.09,1c0,2.09,0,4.17,0,6.25a0.37,0.37,0,0,1-.47.46c-0.8,0-1.61,0-2.41,0a0.32,0.32,0,0,1-.39-0.39q0-3.11,0-6.22a3.36,3.36,0,0,0-6.72-.13c-0.05,2.11,0,4.22,0,6.33,0,0.3-.08.42-0.4,0.41q-1.22,0-2.45,0a0.35,0.35,0,0,1-.43-0.43c0-1.14,0-2.29,0-3.43h0Z" transform="translate(-304.09 -285.42)"/>
    <path class="cls-2" d="M444,304.5c0-1.07,0-2.14,0-3.2a0.33,0.33,0,0,1,.41-0.4c0.82,0,1.63,0,2.45,0a0.33,0.33,0,0,1,.4.41c0,2.08,0,4.17,0,6.25a3.38,3.38,0,0,0,6.75-.06c0-2,0-4.09,0-6.14,0-.36.1-0.48,0.46-0.47,0.8,0,1.61,0,2.41,0a0.32,0.32,0,0,1,.4.38c0,2,0,4.09,0,6.14a6.62,6.62,0,0,1-13.19.81c-0.1-1.23,0-2.48,0-3.72H444Z" transform="translate(-304.09 -285.42)"/>
    <path class="cls-2" d="M377.68,310.28c0,1.14,0,2.29,0,3.43a0.33,0.33,0,0,1-.41.41c-0.79,0-1.58,0-2.37,0a0.34,0.34,0,0,1-.43-0.43q0-3,0-6a3.4,3.4,0,0,0-2.69-3.45,3.33,3.33,0,0,0-4.07,3.18c0,2.1,0,4.19,0,6.29,0,0.33-.08.44-0.42,0.43-0.82,0-1.63,0-2.45,0a0.31,0.31,0,0,1-.4-0.38c0-2.21-.06-4.42,0-6.63a6.53,6.53,0,0,1,5.07-6.05,6.62,6.62,0,0,1,8.09,5.57,30.74,30.74,0,0,1,0,3.65h0Z" transform="translate(-304.09 -285.42)"/>
    <path class="cls-2" d="M457.78,310.25c0-1.07,0-2.14,0-3.2a6.16,6.16,0,0,1,2.58-4.82A6.62,6.62,0,0,1,471,307.49c0,2.06,0,4.12,0,6.18a0.36,0.36,0,0,1-.45.44c-0.8,0-1.61,0-2.41,0a0.33,0.33,0,0,1-.41-0.41c0-2.06,0-4.12,0-6.18a3.4,3.4,0,0,0-2.88-3.36,3.34,3.34,0,0,0-3.77,2.56,4.27,4.27,0,0,0-.1,1c0,2,0,4,0,6a0.38,0.38,0,0,1-.47.47c-0.78,0-1.56,0-2.34,0-0.34,0-.43-0.12-0.42-0.44,0-1.14,0-2.29,0-3.43h0Z" transform="translate(-304.09 -285.42)"/>
    <path class="cls-2" d="M479,314.11a8,8,0,0,1-3.3-.44,6.67,6.67,0,0,1-4.18-6.23,6.61,6.61,0,0,1,6-6.51,33.21,33.21,0,0,1,3.69,0,0.38,0.38,0,0,1,.24.27c0,0.89,0,1.78,0,2.67,0,0.27-.14.3-0.36,0.3H478a3.36,3.36,0,0,0-.53,6.66,2.75,2.75,0,0,0,.52,0c1,0,2,0,3,0a0.33,0.33,0,0,1,.41.41c0,0.83,0,1.66,0,2.49a0.3,0.3,0,0,1-.37.37C480.43,314.1,479.84,314.11,479,314.11Z" transform="translate(-304.09 -285.42)"/>
    <path class="cls-2" d="M348.48,314.2a22.43,22.43,0,0,1-2.9-.33,6.51,6.51,0,0,1-4.81-5.54,6.62,6.62,0,0,1,5.37-7.33,9.82,9.82,0,0,1,1.61-.1c0.83,0,1.66,0,2.49,0a0.31,0.31,0,0,1,.38.37c0,0.84,0,1.68,0,2.52,0,0.31-.12.38-0.41,0.38-1,0-2,0-3,0a3.35,3.35,0,0,0,0,6.7c1,0,2,0,3,0a0.32,0.32,0,0,1,.39.39q0,1.24,0,2.49a0.32,0.32,0,0,1-.39.39c-0.58,0-1.16,0-1.73,0v0.09Z" transform="translate(-304.09 -285.42)"/>
    <path class="cls-2" d="M415.2,306.17c0,0.45,0,.9,0,1.36a3.34,3.34,0,0,0,3,3.31,0.33,0.33,0,0,1,.37.42c0,0.82,0,1.63,0,2.45a0.33,0.33,0,0,1-.44.41,6.6,6.6,0,0,1-5.54-3.85,6.69,6.69,0,0,1-.62-3q0-4.61,0-9.23a0.38,0.38,0,0,1,.48-0.46c0.78,0,1.56,0,2.33,0,0.4,0,.49.13,0.47,0.5,0,0.79,0,1.58,0,2.37a0.38,0.38,0,0,0,.48.46c0.83,0,1.66,0,2.49,0a0.3,0.3,0,0,1,.37.37c0,0.84,0,1.68,0,2.52,0,0.32-.12.38-0.4,0.37-0.85,0-1.71,0-2.56,0a0.3,0.3,0,0,0-.37.37C415.21,305.07,415.2,305.62,415.2,306.17Z" transform="translate(-304.09 -285.42)"/>
    <path class="cls-2" d="M378.18,302.83c0-1.61,0-3.21,0-4.82,0-.32.07-0.45,0.42-0.44,0.83,0,1.66,0,2.49,0a0.3,0.3,0,0,1,.37.37c0,0.83,0,1.66,0,2.49a0.39,0.39,0,0,0,.48.47c0.83,0,1.66,0,2.49,0a0.31,0.31,0,0,1,.37.37q0,1.26,0,2.52a0.3,0.3,0,0,1-.37.37c-0.83,0-1.66,0-2.49,0a0.38,0.38,0,0,0-.48.46c0,1,0,2,0,3a3.37,3.37,0,0,0,3,3.26,0.29,0.29,0,0,1,.31.35c0,0.85,0,1.71,0,2.56a0.3,0.3,0,0,1-.39.35,6.51,6.51,0,0,1-4.12-1.8,6.68,6.68,0,0,1-2.09-5.11C378.18,305.75,378.18,304.29,378.18,302.83Z" transform="translate(-304.09 -285.42)"/>
    <path class="cls-2" d="M427.26,302.88v4.71a3.33,3.33,0,0,0,3,3.26,0.3,0.3,0,0,1,.33.38c0,0.84,0,1.68,0,2.52a0.31,0.31,0,0,1-.4.37,6.53,6.53,0,0,1-5-2.77,6.43,6.43,0,0,1-1.23-3.91q0-4.69,0-9.38a0.39,0.39,0,0,1,.49-0.48c0.79,0,1.58,0,2.37,0a0.33,0.33,0,0,1,.41.41c0,1.63,0,3.26,0,4.9h0Z" transform="translate(-304.09 -285.42)"/>
  </g>
</svg>
