<?xml version="1.0" encoding="utf-8"?>
<!-- Generator: Adobe Illustrator 14.0.0, SVG Export Plug-In . SVG Version: 6.00 Build 43363)  -->
<!DOCTYPE svg PUBLIC "-//W3C//DTD SVG 1.1//EN" "http://www.w3.org/Graphics/SVG/1.1/DTD/svg11.dtd">
<svg version="1.1" id="Layer_1" xmlns="http://www.w3.org/2000/svg" xmlns:xlink="http://www.w3.org/1999/xlink" x="0px" y="0px"
	 width="512px" height="512px" viewBox="0 0 512 512" enable-background="new 0 0 512 512" xml:space="preserve">
<path fill="#FFFFFF" d="M416,433v-95.167v-30v-73.167v-30V146.5v-60h-44h-46.5h-44h-52V64H192h-6.5H128v22.5H92.5v60v58.167v30
	v73.167v30V433h-17v15h359v-15H416z M229.5,337.833h52V433h-52V337.833z M229.5,307.833v-73.167h52v73.167H229.5z M372,405.167
	h-46.5v-67.334H372V405.167z M372,307.833h-46.5v-73.167H372V307.833z M372,146.5v58.167h-46.5V146.5H372z M281.5,146.5v58.167h-52
	V146.5H281.5z M136.5,146.5h49v58.167h-49V146.5z M136.5,234.667h49v73.167h-49V234.667z M185.5,337.833v67.334h-49v-67.334H185.5z"
	/>
</svg>
