<?xml version="1.0" encoding="utf-8"?>
<!-- Generator: Adobe Illustrator 14.0.0, SVG Export Plug-In . SVG Version: 6.00 Build 43363)  -->
<!DOCTYPE svg PUBLIC "-//W3C//DTD SVG 1.1//EN" "http://www.w3.org/Graphics/SVG/1.1/DTD/svg11.dtd">
<svg version="1.1" id="Layer_1" xmlns="http://www.w3.org/2000/svg" xmlns:xlink="http://www.w3.org/1999/xlink" x="0px" y="0px"
	 width="512px" height="512px" viewBox="0 0 512 512" enable-background="new 0 0 512 512" xml:space="preserve">
<path fill="#FFFFFF" d="M453.655,55.207h-35.138v70.276H313.104V55.207H207.689v70.276H102.276V55.207H67.138
	C47.812,55.207,32,71.019,32,90.345v386.518C32,496.188,47.812,512,67.138,512h386.518c19.325,0,35.138-15.813,35.138-35.138V90.345
	C488.793,71.019,472.98,55.207,453.655,55.207z M137.414,476.862H67.201c-0.022-0.019-0.045-0.042-0.063-0.063v-70.213h70.276
	V476.862z M137.414,371.448H67.138v-70.275h70.276V371.448z M137.414,266.034H67.138v-70.275h70.276V266.034z M242.828,476.862
	h-70.276v-70.276h70.276V476.862z M242.828,371.448h-70.276v-70.275h70.276V371.448z M242.828,266.034h-70.276v-70.275h70.276
	V266.034z M348.241,476.862h-70.275v-70.276h70.275V476.862z M348.241,371.448h-70.275v-70.275h70.275V371.448z M348.241,266.034
	h-70.275v-70.275h70.275V266.034z M453.655,476.799c-0.019,0.021-0.042,0.045-0.063,0.063h-70.213v-70.276h70.276V476.799z
	 M453.655,371.448h-70.276v-70.275h70.276V371.448z M453.655,266.034h-70.276v-70.275h70.276V266.034z M172.552,20.069
	c0-9.702-7.867-17.569-17.569-17.569c-9.703,0-17.569,7.867-17.569,17.569v70.276h35.138V20.069z M383.379,20.069
	c0-9.702-7.866-17.569-17.568-17.569s-17.569,7.867-17.569,17.569v70.276h35.138V20.069z"/>
</svg>
