<?xml version="1.0" encoding="utf-8"?>
<!-- Generator: Adobe Illustrator 14.0.0, SVG Export Plug-In . SVG Version: 6.00 Build 43363)  -->
<!DOCTYPE svg PUBLIC "-//W3C//DTD SVG 1.1//EN" "http://www.w3.org/Graphics/SVG/1.1/DTD/svg11.dtd">
<svg version="1.1" id="Layer_1" xmlns="http://www.w3.org/2000/svg" xmlns:xlink="http://www.w3.org/1999/xlink" x="0px" y="0px"
	 width="16px" height="16px" viewBox="0 0 16 16" enable-background="new 0 0 16 16" xml:space="preserve">
<g>
	<path fill="#F2F0EC" d="M13.764,6.341c-0.127-0.438-0.298-0.855-0.515-1.246l0.994-2.091c-0.369-0.46-0.787-0.878-1.247-1.247
		l-2.092,0.994c-0.389-0.216-0.807-0.388-1.245-0.514L8.881,0.051C8.592,0.019,8.298,0,8,0S7.408,0.019,7.119,0.051L6.341,2.237
		C5.904,2.363,5.486,2.535,5.096,2.751L3.004,1.757c-0.46,0.369-0.878,0.787-1.247,1.247l0.994,2.091
		c-0.216,0.39-0.388,0.808-0.514,1.246L0.051,7.119C0.019,7.408,0,7.702,0,8s0.019,0.592,0.051,0.881l2.187,0.778
		c0.126,0.438,0.297,0.854,0.514,1.246l-0.994,2.091c0.369,0.46,0.787,0.879,1.247,1.247l2.091-0.994
		c0.39,0.216,0.808,0.388,1.246,0.515L7.12,15.95C7.408,15.98,7.702,16,8,16s0.592-0.02,0.881-0.051l0.778-2.188
		c0.438-0.126,0.854-0.297,1.245-0.514l2.092,0.994c0.46-0.369,0.879-0.787,1.247-1.247l-0.994-2.091
		c0.216-0.391,0.388-0.809,0.515-1.246L15.95,8.88C15.98,8.592,16,8.298,16,8s-0.02-0.592-0.051-0.881L13.764,6.341z M8,12
		c-2.209,0-4-1.791-4-4s1.791-4,4-4s4,1.791,4,4S10.209,12,8,12z M6,8c0,1.104,0.896,2,2,2s2-0.896,2-2S9.104,6,8,6S6,6.896,6,8z"/>
</g>
</svg>
