<?xml version="1.0" encoding="utf-8"?>
<!-- Generator: Adobe Illustrator 14.0.0, SVG Export Plug-In . SVG Version: 6.00 Build 43363)  -->
<!DOCTYPE svg PUBLIC "-//W3C//DTD SVG 1.1//EN" "http://www.w3.org/Graphics/SVG/1.1/DTD/svg11.dtd">
<svg version="1.1" id="Layer_1" xmlns="http://www.w3.org/2000/svg" xmlns:xlink="http://www.w3.org/1999/xlink" x="0px" y="0px"
	 width="512px" height="512px" viewBox="0 0 512 512" enable-background="new 0 0 512 512" xml:space="preserve">
<path fill="#FFFFFF" d="M256.003,0c-85.374,0-154.661,68.339-154.661,152.54c0,42.102,25.089,86.239,53.788,133.976
	c28.7,47.737,6.022,100.49,103.695,99.073c93.616-1.376,69.35-44.273,96.629-92.011c27.289-47.736,55.205-98.938,55.205-141.039
	C410.66,68.338,341.371,0,256.003,0z M191.076,399.223v40.615c19.95,6.488,41.896,10.088,64.927,10.088
	c23.029,0,44.97-3.6,64.921-10.086v-37.524c-11.158,10.272-29.447,13.1-62.1,13.645
	C222.605,416.557,202.953,412.152,191.076,399.223z M191.753,465.056c2.507,13.705,13.3,46.944,64.25,46.944
	c50.949,0,61.742-33.239,64.25-46.944c-28.826,8.815-41.978,9.291-64.25,9.291C233.728,474.347,220.577,473.871,191.753,465.056z"/>
</svg>
