<?xml version="1.0" encoding="utf-8"?>
<!-- Generator: Adobe Illustrator 14.0.0, SVG Export Plug-In . SVG Version: 6.00 Build 43363)  -->
<!DOCTYPE svg PUBLIC "-//W3C//DTD SVG 1.1//EN" "http://www.w3.org/Graphics/SVG/1.1/DTD/svg11.dtd">
<svg version="1.1" id="Layer_1" xmlns="http://www.w3.org/2000/svg" xmlns:xlink="http://www.w3.org/1999/xlink" x="0px" y="0px"
	 width="512px" height="512px" viewBox="0 0 512 512" enable-background="new 0 0 512 512" xml:space="preserve">
<path fill="#FFFFFF" d="M256,104c-50.126,0-94.77,23.401-123.163,59.628l-38.388-28.791C131.609,86.955,190.196,56,256,56V0l80,80
	l-80,80V104z M256,408c50.127,0,94.771-23.401,123.163-59.628l38.388,28.791C380.391,425.045,321.805,456,256,456v56l-80-80l80-80
	V408z M100.8,256c0,50.182,24.964,94.754,63.362,122.451l-28.792,38.39C85.316,380.377,52.8,321.858,52.8,256H0l80-80l80,80H100.8z
	 M459.2,256H512l-80,80l-80-80h59.2c0-50.182-24.964-94.754-63.362-122.451L376.63,95.16C426.684,131.623,459.2,190.141,459.2,256z"
	/>
</svg>
