<?xml version="1.0" encoding="utf-8"?>
<!-- Generator: Adobe Illustrator 14.0.0, SVG Export Plug-In . SVG Version: 6.00 Build 43363)  -->
<!DOCTYPE svg PUBLIC "-//W3C//DTD SVG 1.1//EN" "http://www.w3.org/Graphics/SVG/1.1/DTD/svg11.dtd">
<svg version="1.1" id="Layer_1" xmlns="http://www.w3.org/2000/svg" xmlns:xlink="http://www.w3.org/1999/xlink" x="0px" y="0px"
	 width="512px" height="512px" viewBox="0 0 512 512" enable-background="new 0 0 512 512" xml:space="preserve">
<path fill="#FFFFFF" d="M416,128l64-64V32h-32l-64,64L416,128z M512,160v32h-64v-32H512z M352,288v64h-32v-64H352z M448,320h32v-32
	l-64-64l-32,32L448,320z M352.001,0v64h-32V0H352.001z M224,160v32h-64v-32H224z M224,32h-32v32l64,64l32-32L224,32z M71,505
	L389.06,186.941c9.334-9.334,9.334-24.607,0-33.941l-30.059-30.059c-9.334-9.334-24.607-9.334-33.941,0L7,441
	c-9.334,9.334-9.334,24.607,0,33.941L37.059,505C46.393,514.334,61.667,514.334,71,505z M240,240l96-96L368,176l-96,96L240,240z"/>
</svg>
