<?xml version="1.0" encoding="utf-8"?> <!-- Generator: IcoMoon --> <!DOCTYPE svg PUBLIC "-//W3C//DTD SVG 1.1//EN" "http://www.w3.org/Graphics/SVG/1.1/DTD/svg11.dtd"> <svg width="512" height="512" viewBox="0 0 512 512" data-tags="pencil, writing, edit, article, blog" fill="#000000">CollaboratorsController<path d="M 507.332,78.04L 433.96,4.667c-6.224-6.222-16.404-6.222-22.628,0.00L 384.00,32.00l 96.00,96.00l 27.332-27.333 C 513.556,94.444, 513.556,84.262, 507.332,78.04zM 128.00,384.00L 256.00,352.00L 448.00,160.00L 352.00,64.00L 160.00,256.00 zM 416.00,448.00L 64.00,448.00 L 64.00,96.00 l 192.00,0.00 l 64.00-64.00L 32.00,32.00 C 14.40,32.00,0.00,46.40,0.00,64.00l0.00,416.00 c0.00,17.60, 14.399,32.00, 32.00,32.00l 416.00,0.00 c 17.60,0.00, 32.00-14.40, 32.00-32.00L 480.00,192.00 l-64.00,64.00L 416.00,448.00 z" ></path></svg>