<?xml version="1.0" encoding="utf-8"?> <!-- Generator: IcoMoon --> <!DOCTYPE svg PUBLIC "-//W3C//DTD SVG 1.1//EN" "http://www.w3.org/Graphics/SVG/1.1/DTD/svg11.dtd"> <svg width="512" height="512" viewBox="0 0 512 512" data-tags="comments, chat, bubble, message, talk" fill="#000000"><path d="M 128.00,256.00l 224.00,0.00 c 17.594,0.00, 32.00-14.406, 32.00-32.00L 384.00,64.00 c0.00-17.594-14.406-32.00-32.00-32.00L 32.00,32.00 C 14.406,32.00,0.00,46.406,0.00,64.00l0.00,160.00 c0.00,17.594, 14.404,32.00, 32.00,32.00l 32.00,0.00 l0.00,64.00 L 128.00,256.00zM 480.00,192.00l-64.00,0.00 l0.00,64.00 c0.00,17.594-14.406,32.00-32.00,32.00L 160.00,288.00 l0.00,96.00 c0.00,17.596, 14.404,32.00, 32.00,32.00l 192.00,0.00 l 64.00,64.00l0.00-64.00 l 32.00,0.00 c 17.594,0.00, 32.00-14.404, 32.00-32.00L 512.00,224.00 C 512.00,206.406, 497.594,192.00, 480.00,192.00z" ></path></svg>