<?xml version="1.0" encoding="utf-8"?>
<!-- Generator: Adobe Illustrator 14.0.0, SVG Export Plug-In . SVG Version: 6.00 Build 43363)  -->
<!DOCTYPE svg PUBLIC "-//W3C//DTD SVG 1.1//EN" "http://www.w3.org/Graphics/SVG/1.1/DTD/svg11.dtd">
<svg version="1.1" id="Layer_1" xmlns="http://www.w3.org/2000/svg" xmlns:xlink="http://www.w3.org/1999/xlink" x="0px" y="0px"
	 width="512px" height="512px" viewBox="0 0 512 512" enable-background="new 0 0 512 512" xml:space="preserve">
<g>
	<path fill="#FFFFFF" d="M291.838,16.409c-11.1-9.385-28.844-17.107-46.993-13.758c-7.33,1.359-14.794,4.039-20.646,8.052
		c-25.985,17.719-50.605,65.059-51.584,105.465c-0.419,17.176,3.632,38.025,5.73,57.324c4.854,44.439,8.04,71.917,12.621,114.647
		c2.124,19.757,2.313,47.182,11.463,52.729c9.151,5.562,36.887,2.303,52.728,2.303c21.36,0,41.787,5.207,52.757-3.452
		c6.775-5.359,8.064-30.524,10.313-51.58c4.397-40.982,7.279-77.104,11.451-113.509c1.946-17.006,6.801-36.432,6.874-56.187
		C336.73,75.919,309.76,31.512,291.838,16.409z M290.7,160.884c-13.703,34.953-67.678,29.404-74.528-5.731
		c-5.643-28.957,11.754-44.06,33.249-47.012C276.821,104.375,302.758,130.109,290.7,160.884z"/>
	<path fill="#FFFFFF" d="M341.153,236.528c0.053-2.225,2.809-11.267,12.601-10.312c7.925,0.776,17.658,18.363,22.915,26.364
		c14.764,22.328,22.297,37.102,29.828,68.789c2.92,12.284,10.036,38.194-3.463,38.991c-11.477,0.656-24.115-8.673-37.815-14.915
		c-11.73-5.322-31.472-10.769-32.103-20.626L341.153,236.528z"/>
	<path fill="#FFFFFF" d="M176.051,323.655c0.209,10.844-19.425,16.025-32.096,21.789c-13.987,6.344-37.051,19.263-42.423,12.614
		c-9.796-21.26,2.28-49.584,12.619-72.231c9.745-21.393,23.838-46.266,36.68-56.168c4.246-3.273,12.62-1.529,14.907,3.444
		L176.051,323.655z"/>
	<path fill="#FFFFFF" d="M254.297,421.935c13.512-2.627,6.219-57.708,18.05-60.438c12.967-2.983,25.935,14.838,27.527,27.527
		c2.147,17.429-3.844,38.447-8.037,57.317c-5.487,24.836-13.197,66.723-37.818,66.495c-16.992-0.153-28.242-28.465-34.403-51.594
		c-6.705-25.201-16.577-62.246-8.025-82.531c2.755-6.573,13.852-19.112,24.076-17.215
		C245.704,363.379,240.711,419.509,254.297,421.935z"/>
</g>
</svg>
