<?xml version="1.0" encoding="utf-8"?>
<!-- Generator: Adobe Illustrator 14.0.0, SVG Export Plug-In . SVG Version: 6.00 Build 43363)  -->
<!DOCTYPE svg PUBLIC "-//W3C//DTD SVG 1.1//EN" "http://www.w3.org/Graphics/SVG/1.1/DTD/svg11.dtd">
<svg version="1.1" id="Layer_1" xmlns="http://www.w3.org/2000/svg" xmlns:xlink="http://www.w3.org/1999/xlink" x="0px" y="0px"
	 width="512px" height="512px" viewBox="0 0 512 512" enable-background="new 0 0 512 512" xml:space="preserve">
<path fill="#FFFFFF" d="M352,24v8H248c-30.878,0-56,25.121-56,56v136h-64v-8c0-13.2-10.8-24-24-24H24c-13.2,0-24,10.8-24,24v80
	c0,13.2,10.8,24,24,24h80c13.2,0,24-10.8,24-24v-8h64v136c0,30.878,25.122,56,56,56h104v8c0,13.2,10.8,24,24,24h80
	c13.2,0,24-10.8,24-24v-80c0-13.2-10.8-24-24-24h-80c-13.2,0-24,10.8-24,24v8h-96V288h96v8c0,13.2,10.8,24,24,24h80
	c13.2,0,24-10.8,24-24v-80c0-13.2-10.8-24-24-24h-80c-13.2,0-24,10.8-24,24v8h-96V96h96v8c0,13.2,10.8,24,24,24h80
	c13.2,0,24-10.8,24-24V24c0-13.2-10.8-24-24-24h-80C362.8,0,352,10.8,352,24z"/>
</svg>
