<?xml version="1.0" encoding="utf-8"?>
<!-- Generator: Adobe Illustrator 14.0.0, SVG Export Plug-In . SVG Version: 6.00 Build 43363)  -->
<!DOCTYPE svg PUBLIC "-//W3C//DTD SVG 1.1//EN" "http://www.w3.org/Graphics/SVG/1.1/DTD/svg11.dtd">
<svg version="1.1" id="Layer_1" xmlns="http://www.w3.org/2000/svg" xmlns:xlink="http://www.w3.org/1999/xlink" x="0px" y="0px"
	 width="512px" height="512px" viewBox="0 0 512 512" enable-background="new 0 0 512 512" xml:space="preserve">
<g enable-background="new    ">
	<g>
		<path d="M205.845,185.007v64.284h-6.977c-2.659-10.13-5.649-18.563-8.97-25.29c-3.325-6.728-7.101-12.084-11.337-16.071
			c-4.236-3.986-8.931-6.766-14.078-8.347c-5.15-1.577-10.8-2.367-16.943-2.367c-4.82,0-9.18,0.709-13.082,2.118
			c-3.905,1.413-7.269,3.239-10.091,5.481c-2.827,2.242-5.026,4.858-6.603,7.849c-1.581,2.99-2.367,5.98-2.367,8.97
			c0,3.823,0.456,7.351,1.371,10.59c0.911,3.239,2.573,6.354,4.983,9.344c2.406,2.99,5.73,5.94,9.966,8.846
			c4.236,2.908,9.675,5.94,16.32,9.094l30.149,14.452c14.117,6.813,24.625,14.743,31.52,23.795
			c6.891,9.056,10.34,19.062,10.34,30.024c0,8.639-1.83,16.487-5.481,23.546c-3.656,7.063-8.433,13.081-14.327,18.064
			c-5.898,4.983-12.626,8.846-20.183,11.586c-7.561,2.741-15.242,4.111-23.047,4.111c-11.96,0-25.166-2.079-39.618-6.229
			c-4.983-1.328-8.721-1.993-11.212-1.993c-3.325,0-5.816,1.829-7.475,5.481h-6.728v-67.524h6.728
			c1.826,9.804,4.648,18.314,8.472,25.54c3.819,7.226,8.347,13.248,13.579,18.064c5.232,4.819,10.963,8.433,17.192,10.839
			c6.229,2.409,12.665,3.612,19.311,3.612c4.648,0,8.97-0.747,12.957-2.242s7.389-3.527,10.216-6.104
			c2.822-2.573,5.022-5.563,6.603-8.97c1.577-3.403,2.367-7.102,2.367-11.088c0-4.15-0.498-7.931-1.495-11.337
			c-0.997-3.403-2.865-6.685-5.606-9.843c-2.741-3.153-6.439-6.311-11.088-9.468c-4.652-3.153-10.55-6.642-17.691-10.465
			l-26.91-13.953c-7.475-3.819-13.498-7.557-18.064-11.213c-4.57-3.651-8.141-7.475-10.714-11.461
			c-2.578-3.987-4.322-8.18-5.232-12.583c-0.915-4.399-1.371-9.259-1.371-14.576c0-7.639,1.409-14.783,4.236-21.429
			c2.823-6.642,6.767-12.415,11.835-17.316c5.065-4.898,11.088-8.76,18.064-11.587c6.977-2.822,14.701-4.235,23.172-4.235
			c2.492,0,5.77,0.417,9.842,1.246c4.068,0.833,8.223,1.744,12.458,2.74c4.236,0.997,8.055,1.912,11.461,2.741
			c3.403,0.833,5.77,1.246,7.101,1.246c2.157,0,3.862-0.499,5.108-1.495c1.246-0.997,2.698-3.153,4.36-6.479H205.845z"/>
	</g>
</g>
<g enable-background="new    ">
	<g>
		<path d="M157.009,391.086c-12.439,0-26.306-2.168-41.218-6.445c-5.517-1.468-8.271-1.776-9.612-1.776
			c-0.473,0-1.121,0-2.011,1.962l-1.598,3.52H85.977v-79.524h17.713l0.913,4.901c1.706,9.161,4.356,17.179,7.876,23.833
			c3.482,6.588,7.633,12.124,12.339,16.456c4.653,4.285,9.797,7.534,15.291,9.656c5.507,2.13,11.276,3.209,17.148,3.209
			c3.908,0,7.559-0.626,10.85-1.86c3.25-1.219,6.036-2.874,8.28-4.92c2.246-2.048,3.948-4.358,5.203-7.062
			c1.217-2.627,1.81-5.429,1.81-8.563c0-3.563-0.422-6.81-1.253-9.651c-0.748-2.553-2.221-5.109-4.379-7.596
			c-2.384-2.743-5.725-5.583-9.927-8.438c-4.451-3.016-10.223-6.429-17.152-10.139l-26.839-13.916
			c-7.774-3.972-14.194-7.966-19.053-11.855c-5.046-4.031-9.086-8.369-12.005-12.891c-2.968-4.592-5.01-9.513-6.067-14.622
			c-0.992-4.767-1.495-10.083-1.495-15.792c0-8.422,1.586-16.422,4.714-23.777c3.127-7.356,7.563-13.844,13.186-19.281
			c5.594-5.41,12.317-9.728,19.982-12.834c7.669-3.103,16.222-4.675,25.426-4.675c2.911,0,6.522,0.447,11.039,1.367
			c4.198,0.86,8.447,1.794,12.635,2.779c4.253,1.001,8.087,1.92,11.507,2.752c4.272,1.046,5.55,1.076,5.682,1.076
			c0.861,0,1.291-0.143,1.384-0.198l0,0c-0.006,0,0.914-0.85,2.718-4.458l1.658-3.317h16.685v76.284H194.24l-1.175-4.477
			c-2.545-9.696-5.421-17.824-8.547-24.157c-2.992-6.054-6.38-10.885-10.069-14.358c-3.536-3.327-7.481-5.675-11.728-6.98
			c-4.555-1.395-9.664-2.103-15.181-2.103c-4.092,0-7.808,0.593-11.043,1.761c-3.274,1.185-6.1,2.711-8.397,4.536
			c-2.188,1.736-3.832,3.681-5.028,5.949c-1.128,2.134-1.675,4.15-1.675,6.171c0,3.256,0.385,6.27,1.145,8.959
			c0.688,2.443,1.992,4.866,3.881,7.209c2.031,2.523,4.953,5.101,8.688,7.663c3.965,2.722,9.179,5.622,15.499,8.621l30.17,14.463
			c14.927,7.203,26.26,15.804,33.699,25.569c7.676,10.087,11.567,21.411,11.567,33.66c0,9.562-2.07,18.411-6.152,26.303
			c-3.998,7.724-9.308,14.415-15.782,19.89c-6.417,5.421-13.822,9.675-22.011,12.645
			C173.919,389.582,165.477,391.086,157.009,391.086L157.009,391.086z M106.179,370.864c3.042,0,7.215,0.718,12.758,2.195
			l0.11,0.031c13.856,3.978,26.628,5.995,37.962,5.995c7.069,0,14.135-1.263,21.002-3.752c6.852-2.484,13.027-6.027,18.355-10.528
			c5.268-4.454,9.599-9.918,12.871-16.239c3.191-6.17,4.81-13.164,4.81-20.788c0-9.698-2.981-18.331-9.115-26.391
			c-6.281-8.246-16.157-15.657-29.353-22.025l-30.135-14.445c-6.87-3.26-12.639-6.479-17.123-9.558
			c-4.7-3.223-8.484-6.599-11.245-10.031c-2.909-3.609-4.958-7.473-6.084-11.48c-1.058-3.744-1.595-7.855-1.595-12.214
			c0-3.968,1.03-7.929,3.063-11.773c1.958-3.714,4.711-6.995,8.179-9.746c3.313-2.632,7.276-4.794,11.778-6.423
			c4.55-1.644,9.637-2.476,15.123-2.476c1.982,0,3.928,0.077,5.833,0.231c-1.926-0.292-3.545-0.44-4.836-0.44
			c-7.654,0-14.693,1.278-20.922,3.797c-6.228,2.524-11.661,6.002-16.143,10.338c-4.462,4.314-7.989,9.479-10.485,15.35
			c-2.494,5.863-3.758,12.283-3.758,19.082c0,4.89,0.419,9.383,1.245,13.354c0.756,3.657,2.235,7.203,4.396,10.547
			c2.216,3.434,5.385,6.807,9.42,10.031c4.23,3.387,9.965,6.938,17.049,10.558l26.941,13.97c7.365,3.942,13.497,7.572,18.295,10.824
			c5.064,3.439,9.184,6.971,12.25,10.499c3.3,3.803,5.599,7.87,6.835,12.092c1.152,3.938,1.737,8.319,1.737,13.023
			c0,4.846-0.983,9.425-2.923,13.61c-1.913,4.122-4.605,7.782-8.004,10.881c-3.377,3.079-7.465,5.531-12.151,7.289
			c-4.644,1.741-9.711,2.624-15.063,2.624c-7.359,0-14.584-1.352-21.475-4.017c-6.903-2.666-13.328-6.711-19.093-12.021
			c-5.712-5.258-10.698-11.878-14.819-19.674c-1.426-2.694-2.725-5.563-3.895-8.598v39.046
			C100.929,371.326,104.101,370.864,106.179,370.864L106.179,370.864z M168.451,194.597c5.168,1.927,9.942,4.935,14.223,8.964
			c4.735,4.457,8.976,10.439,12.604,17.782c1.593,3.227,3.118,6.837,4.567,10.806v-37.501c-0.523,0.589-1.05,1.092-1.588,1.523
			c-2.332,1.865-5.312,2.81-8.856,2.81c-1.891,0-4.521-0.438-8.528-1.418c-3.386-0.824-7.19-1.736-11.41-2.729
			C169.125,194.754,168.788,194.675,168.451,194.597L168.451,194.597z"/>
	</g>
</g>
<g enable-background="new    ">
	<g>
		<path d="M392.697,159.841l-4.484,16.445h-36.379l-27.408,108.885c-12.127,48.007-24.336,85.133-36.627,111.377
			c-17.441,37.04-36.214,62.622-56.311,76.743c-15.281,10.796-30.562,16.195-45.846,16.195c-9.966,0-18.438-2.99-25.415-8.97
			c-5.147-4.154-7.724-9.554-7.724-16.196c0-5.317,2.118-9.928,6.354-13.828c4.236-3.905,9.429-5.855,15.573-5.855
			c4.485,0,8.265,1.409,11.337,4.235c3.076,2.823,4.61,6.063,4.61,9.718c0,3.652-1.744,7.059-5.232,10.216
			c-2.655,2.324-3.987,4.068-3.987,5.232c0,1.495,0.584,2.655,1.744,3.488c1.495,1.16,3.823,1.744,6.977,1.744
			c7.144,0,14.662-2.242,22.549-6.728c7.892-4.484,14.911-11.173,21.055-20.058c6.147-8.888,11.96-21.72,17.441-38.496
			c2.324-6.977,8.554-29.985,18.688-69.019l43.354-168.685H269.61l3.488-16.445c13.786,0,23.421-0.953,28.903-2.865
			c5.481-1.907,10.504-5.563,15.074-10.963c4.566-5.396,10.504-15.487,17.815-30.273c9.799-19.934,19.186-35.382,28.155-46.345
			c12.291-14.783,25.205-25.871,38.745-33.264c13.537-7.39,26.287-11.088,38.247-11.088c12.621,0,22.756,3.2,30.398,9.593
			c7.639,6.396,11.461,13.331,11.461,20.805c0,5.816-1.911,10.714-5.73,14.701c-3.823,3.987-8.721,5.98-14.701,5.98
			c-5.15,0-9.344-1.495-12.582-4.485c-3.24-2.99-4.859-6.56-4.859-10.714c0-2.655,1.078-5.938,3.239-9.842
			c2.157-3.901,3.239-6.517,3.239-7.849c0-2.324-0.748-4.068-2.242-5.232c-2.161-1.659-5.318-2.492-9.469-2.492
			c-10.465,0-19.852,3.325-28.155,9.967c-11.131,8.806-21.097,22.592-29.899,41.361c-4.485,9.803-12.708,34.136-24.668,73.005
			H392.697z"/>
	</g>
</g>
<g enable-background="new    ">
	<g>
		<path d="M185.642,495.486c-11.361,0-21.202-3.484-29.252-10.357c-6.561-5.325-9.886-12.325-9.886-20.809
			c0-7.04,2.789-13.177,8.289-18.242c5.355-4.937,11.963-7.441,19.637-7.441c6.021,0,11.202,1.958,15.399,5.82
			c4.282,3.93,6.547,8.818,6.547,14.133c0,5.402-2.424,10.337-7.206,14.664c-0.001,0.001-0.002,0.002-0.003,0.003
			c0.22,0.009,0.456,0.014,0.71,0.014c6.06,0,12.648-2,19.583-5.943c7.065-4.015,13.486-10.156,19.085-18.254
			c5.787-8.366,11.396-20.797,16.673-36.947c2.28-6.845,8.529-29.936,18.583-68.663l41.425-161.177h-43.023l6.034-28.445h4.86
			c16.259,0,23.617-1.376,26.928-2.531c4.427-1.54,8.621-4.626,12.47-9.174c4.229-4.997,9.954-14.773,17.018-29.057
			c9.945-20.233,19.668-36.214,28.89-47.484c12.751-15.336,26.371-27.009,40.514-34.73c14.37-7.844,28.205-11.822,41.122-11.822
			c14.007,0,25.529,3.698,34.248,10.991c9.032,7.563,13.611,16.111,13.611,25.407c0,7.385-2.489,13.728-7.398,18.852
			c-4.982,5.196-11.386,7.829-19.033,7.829c-6.683,0-12.286-2.044-16.652-6.077c-4.44-4.098-6.789-9.327-6.789-15.122
			c0-3.728,1.305-7.897,3.989-12.748c1.844-3.333,2.35-4.766,2.48-5.217c-0.01-0.143-0.025-0.245-0.039-0.312
			c-0.658-0.449-2.247-1.139-5.663-1.139c-9.146,0-17.129,2.83-24.407,8.652c-10.368,8.203-19.853,21.393-28.215,39.224
			c-4.035,8.818-11.425,30.499-21.967,64.457h36.349l-7.757,28.445h-36.285l-26.267,104.35
			c-12.165,48.156-24.617,85.991-37.012,112.457c-17.814,37.832-37.426,64.443-58.295,79.107
			C218.707,489.667,202.117,495.486,185.642,495.486L185.642,495.486z M174.429,450.637c-4.628,0-8.392,1.396-11.506,4.267
			c-3.017,2.778-4.42,5.77-4.42,9.417c0,4.84,1.745,8.503,5.493,11.527l0.136,0.113c4.7,4.028,10.112,6.409,16.442,7.215
			c-0.442-0.256-0.863-0.537-1.263-0.842c-2.68-1.965-4.154-4.907-4.154-8.296c0-3.935,3.051-7.135,6.035-9.747
			c3.184-2.883,3.184-5.004,3.184-5.701c0-1.223-0.276-3.104-2.667-5.298C179.738,451.479,177.426,450.637,174.429,450.637
			L174.429,450.637z M277.017,170.286h43.686l-45.28,176.178c-10.269,39.552-16.419,62.255-18.807,69.422
			c-5.626,17.22-11.753,30.693-18.199,40.013c-3.393,4.906-7.076,9.228-11.022,12.936c0.21-0.146,0.421-0.295,0.632-0.443
			c19.155-13.46,37.435-38.488,54.344-74.398c12.067-25.766,24.261-62.877,36.238-110.291l28.549-113.415h36.473l1.212-4.445
			h-36.896l2.39-7.765c12.147-39.479,20.308-63.599,24.946-73.737c9.184-19.581,19.818-34.223,31.633-43.57
			c0.725-0.58,1.458-1.137,2.199-1.673c-1.473,0.719-2.955,1.486-4.447,2.301c-12.808,6.993-25.258,17.703-37.007,31.833
			c-8.611,10.526-17.835,25.731-27.384,45.156c-7.605,15.381-13.694,25.681-18.62,31.502c-5.256,6.209-11.205,10.5-17.683,12.754
			c-5.459,1.904-13.995,2.942-26.005,3.156L277.017,170.286L277.017,170.286z M449.702,31.829c0.79,0.415,1.528,0.885,2.213,1.411
			c2.112,1.646,4.589,4.688,4.589,9.992c0,2.514-1.155,5.629-3.988,10.752c-2.167,3.915-2.49,6.027-2.49,6.938
			c0,2.458,0.931,4.461,2.928,6.304c2.11,1.948,4.895,2.895,8.514,2.895c4.371,0,7.667-1.313,10.371-4.133
			c2.731-2.852,4.061-6.302,4.061-10.548c0-5.657-3.046-10.958-9.313-16.205C462.093,35.479,456.438,33,449.702,31.829
			L449.702,31.829z"/>
	</g>
</g>
</svg>
