<?xml version="1.0" encoding="utf-8"?>
<!-- Generator: Adobe Illustrator 14.0.0, SVG Export Plug-In . SVG Version: 6.00 Build 43363)  -->
<!DOCTYPE svg PUBLIC "-//W3C//DTD SVG 1.1//EN" "http://www.w3.org/Graphics/SVG/1.1/DTD/svg11.dtd">
<svg version="1.1" id="Layer_1" xmlns="http://www.w3.org/2000/svg" xmlns:xlink="http://www.w3.org/1999/xlink" x="0px" y="0px"
	 width="512px" height="512px" viewBox="0 0 512 512" enable-background="new 0 0 512 512" xml:space="preserve">
<path d="M449.077,469.246l-114.54-168.305c65.459-51.835,83.963-145.677,39.835-219.126C326.445,2.041,222.559-23.857,142.793,24.06
	C63.028,71.993,37.131,175.876,85.054,255.643c43.213,71.942,131.962,100.047,207.479,69.717l95.143,180.782
	c2.95,5.611,9.803,7.523,15.229,4.273l42.784-25.72C451.126,481.433,452.653,474.482,449.077,469.246z M288.781,267.032
	c-54.211,32.563-124.808,14.959-157.375-39.253c-32.565-54.197-14.952-124.794,39.253-157.36
	c54.189-32.57,124.786-14.961,157.351,39.245C360.579,163.862,342.979,234.475,288.781,267.032z"/>
</svg>
