<?xml version="1.0" encoding="utf-8"?>
<!-- Generator: Adobe Illustrator 14.0.0, SVG Export Plug-In . SVG Version: 6.00 Build 43363)  -->
<!DOCTYPE svg PUBLIC "-//W3C//DTD SVG 1.1//EN" "http://www.w3.org/Graphics/SVG/1.1/DTD/svg11.dtd">
<svg version="1.1" id="Layer_1" xmlns="http://www.w3.org/2000/svg" xmlns:xlink="http://www.w3.org/1999/xlink" x="0px" y="0px"
	 width="16px" height="16px" viewBox="0 0 16 16" enable-background="new 0 0 16 16" xml:space="preserve">
<g>
	<path fill="#FFFFFF" d="M7.048,5.15C6.963,5.232,6.901,5.324,6.862,5.426C6.823,5.528,6.804,5.635,6.804,5.748
		c0,0.256,0.081,0.462,0.244,0.621c0.162,0.158,0.375,0.292,0.64,0.4l0.195-1.963C7.684,4.836,7.516,4.88,7.379,4.938
		C7.242,4.997,7.132,5.068,7.048,5.15z"/>
	<path fill="#FFFFFF" d="M8.695,8.99l-0.208,2.146C9.202,11.01,9.56,10.615,9.56,9.953c0-0.246-0.079-0.443-0.237-0.592
		C9.164,9.215,8.955,9.092,8.695,8.99z"/>
	<path fill="#FFFFFF" d="M8,0C3.582,0,0,3.582,0,8s3.582,8,8,8s8-3.582,8-8S12.418,0,8,0z M11.263,10.814
		c-0.139,0.361-0.343,0.682-0.611,0.959s-0.598,0.504-0.987,0.68c-0.391,0.176-0.837,0.281-1.34,0.32l-0.077,0.814
		c-0.014,0.121-0.067,0.23-0.163,0.328c-0.096,0.096-0.219,0.145-0.37,0.145H6.973l0.13-1.338c-0.498-0.082-0.974-0.227-1.427-0.434
		c-0.452-0.205-0.835-0.453-1.146-0.744l0.624-0.902c0.052-0.074,0.122-0.137,0.211-0.186c0.089-0.051,0.183-0.074,0.282-0.074
		c0.104,0,0.211,0.027,0.319,0.08c0.107,0.055,0.226,0.121,0.354,0.199s0.268,0.156,0.419,0.236c0.152,0.08,0.325,0.146,0.521,0.199
		l0.24-2.457c-0.312-0.088-0.622-0.189-0.93-0.306C6.262,8.216,5.984,8.058,5.738,7.858c-0.247-0.2-0.448-0.455-0.602-0.764
		c-0.154-0.309-0.23-0.696-0.23-1.161c0-0.343,0.069-0.678,0.208-1.004s0.341-0.62,0.607-0.88c0.267-0.261,0.595-0.475,0.984-0.643
		s0.836-0.251,1.339-0.251l0.071-0.733C8.13,2.298,8.184,2.187,8.279,2.087c0.095-0.099,0.219-0.148,0.37-0.148h0.741l-0.13,1.28
		c0.468,0.087,0.871,0.227,1.209,0.419s0.624,0.4,0.857,0.621l-0.493,0.722c-0.074,0.108-0.148,0.188-0.225,0.237
		s-0.166,0.075-0.27,0.075c-0.069,0-0.147-0.015-0.234-0.045S9.924,5.179,9.819,5.134C9.716,5.088,9.604,5.04,9.485,4.987
		C9.365,4.936,9.239,4.89,9.104,4.851L8.877,7.158c0.208,0.061,0.416,0.127,0.624,0.199c0.208,0.071,0.408,0.154,0.602,0.247
		c0.192,0.093,0.372,0.201,0.539,0.322c0.167,0.122,0.313,0.265,0.436,0.429c0.124,0.166,0.22,0.355,0.289,0.57
		c0.069,0.213,0.104,0.457,0.104,0.73C11.471,10.066,11.401,10.453,11.263,10.814z"/>
</g>
</svg>
