<?xml version="1.0" encoding="utf-8"?>
<!-- Generator: Adobe Illustrator 14.0.0, SVG Export Plug-In . SVG Version: 6.00 Build 43363)  -->
<!DOCTYPE svg PUBLIC "-//W3C//DTD SVG 1.1//EN" "http://www.w3.org/Graphics/SVG/1.1/DTD/svg11.dtd">
<svg version="1.1" id="Layer_1" xmlns="http://www.w3.org/2000/svg" xmlns:xlink="http://www.w3.org/1999/xlink" x="0px" y="0px"
	 width="512px" height="512px" viewBox="0 0 512 512" enable-background="new 0 0 512 512" xml:space="preserve">
<path fill="#282725" d="M256,64c52.936,0,96,43.065,96,96s-43.064,96-96,96c-52.935,0-96-43.065-96-96S203.065,64,256,64 M256,32
	c-70.692,0-128,57.308-128,128s57.308,128,128,128c70.691,0,128-57.308,128-128S326.691,32,256,32L256,32z M384,352
	c52.935,0,96,43.065,96,96H32c0-52.935,43.065-96,96-96H384 M384,320H128C57.308,320,0,377.309,0,448v32h4.033h503.934H512v-32
	C512,377.309,454.692,320,384,320L384,320z"/>
</svg>
