<svg id="Layer_1" data-name="Layer 1" xmlns="http://www.w3.org/2000/svg" viewBox="0 0 17.22 18.04">
  <defs>
    <style>
      .cls-1 {
        fill-rule: evenodd;
      }
    </style>
  </defs>
  <title>add</title>
  <path class="cls-1" d="M416.05,42.32a0.92,0.92,0,0,0,.25-0.65,0.91,0.91,0,0,0-.88-0.91h-6.86V33.67a0.86,0.86,0,1,0-1.73,0v7.09H400a0.91,0.91,0,0,0-.88.91,0.88,0.88,0,0,0,.86.91h6.88v7.29a0.91,0.91,0,0,0,.88.94,0.86,0.86,0,0,0,.63-0.28,1,1,0,0,0,.26-0.66V42.6h6.87A0.84,0.84,0,0,0,416.05,42.32Z" transform="translate(-399.08 -32.78)"/>
</svg>
