<svg id="Layer_1" data-name="Layer 1" xmlns="http://www.w3.org/2000/svg" viewBox="0 0 16.36 9.09">
  <defs>
    <style>
      .cls-1 {
        fill-rule: evenodd;
      }
    </style>
  </defs>
  <title>alert</title>
  <path class="cls-1" d="M204.12,343.77a0.53,0.53,0,0,0,0-1.07h-2.41a0.53,0.53,0,0,0,0,1.07h2.41Zm-2.55-3,0.16,0L204,340a0.54,0.54,0,0,0,.34-0.67,0.52,0.52,0,0,0-.66-0.34l-2.27.74a0.53,0.53,0,0,0-.34.67A0.52,0.52,0,0,0,201.57,340.75Zm2.3,6.65a0.53,0.53,0,0,0,.5-0.37,0.54,0.54,0,0,0-.34-0.67l-2.27-.75a0.52,0.52,0,0,0-.66.35,0.53,0.53,0,0,0,.34.67l2.27,0.75Zm-14.28-5.6-1-.67c-0.13-.08-0.24,0-0.28.15a1,1,0,0,0,0,.16v4c0,0.26.13,0.35,0.32,0.23l1-.65V341.8Zm10.6-2.42a1,1,0,0,0,0-.18,0.37,0.37,0,0,0-.47-0.37l-2,.64-7.47,2.4v3l2.16,0.62,0.28,0.08-0.2.69a0.77,0.77,0,0,0,.06.57,0.76,0.76,0,0,0,.44.36l2.24,0.65a0.73,0.73,0,0,0,.91-0.51l0.2-.7,0.53,0.16,2.85,0.82a0.38,0.38,0,0,0,.47-0.37,1.72,1.72,0,0,0,0-.2v-7.68Zm-6.91,6.4,2.44,0.71-0.2.7a0.11,0.11,0,0,1-.1.08l-2.27-.66a0.09,0.09,0,0,1-.06-0.05,0.1,0.1,0,0,1,0-.08Z" transform="translate(-188.28 -338.81)"/>
</svg>
