<svg id="Layer_1" data-name="Layer 1" xmlns="http://www.w3.org/2000/svg" viewBox="0 0 13.64 11.82">
  <defs>
    <style>
      .cls-1 {
        fill-rule: evenodd;
      }
    </style>
  </defs>
  <title>arrange-mini</title>
  <path class="cls-1" d="M366.17,45.9h8.52a0.66,0.66,0,0,1,0,1.31h-8.52A0.66,0.66,0,0,1,366.17,45.9Zm0-3.5h12.36a0.66,0.66,0,0,1,0,1.31H366.17A0.66,0.66,0,0,1,366.17,42.4Zm0-3.5H376a0.66,0.66,0,0,1,0,1.31h-9.8A0.66,0.66,0,0,1,366.17,38.9Zm12.36-2.19H366.17a0.66,0.66,0,0,1,0-1.31h12.36A0.66,0.66,0,0,1,378.53,36.71Z" transform="translate(-365.54 -35.39)"/>
</svg>
