<svg id="Layer_1" data-name="Layer 1" xmlns="http://www.w3.org/2000/svg" viewBox="0 0 26.87 28.36">
  <defs>
    <style>
      .cls-1 {
        fill-rule: evenodd;
      }
    </style>
  </defs>
  <title>edit-user</title>
  <g>
    <path class="cls-1" d="M279.88,210a16.25,16.25,0,0,0,2.42-.74c2.12-.89,2.62-1.18,2.62-1.18l0-2a3.84,3.84,0,0,1-1-2.53c-0.49.14-.66-0.59-0.69-1.05s-0.29-1.86.31-1.73a12.47,12.47,0,0,1-.18-2.24c0.15-1.58,1.23-3.23,4-3.35a4,4,0,0,1,4,3.35,12.41,12.41,0,0,1-.17,2.24c0.6-.13.35,1.29,0.32,1.73s-0.2,1.21-.69,1.06a3.83,3.83,0,0,1-1,2.53l0,2a25,25,0,0,0,2.62,1.2c2.12,0.89,1.46.18,3.18,1.05,2.73,1.37,2.73,5.15,2.73,5.15a1,1,0,0,1-1,1H286.35Z" transform="translate(-271.39 -195.18)"/>
    <path class="cls-1" d="M282.47,221.38a3.23,3.23,0,0,1,1.06-2,3.13,3.13,0,0,1,2-1.07l0.49,0.5,0.37,1.71a4,4,0,0,0-1,.73,3.84,3.84,0,0,0-.71,1l-1.69-.37ZM271.4,211.06l5.25,5.33,6,6.09,5,1.06-1.05-5-6-6.09-5.25-5.32s-1.13-.23-2.63,1.29S271.4,211.06,271.4,211.06Z" transform="translate(-271.39 -195.18)"/>
  </g>
</svg>
