<svg id="Layer_1" data-name="Layer 1" xmlns="http://www.w3.org/2000/svg" viewBox="0 0 18.27 18.27">
  <defs>
    <style>
      .cls-1 {
        fill-rule: evenodd;
        fill: #d4d1d7;
      }
    </style>
  </defs>
  <title>magnifier</title>
  <path class="cls-1" d="M443.87,95.46A6.07,6.07,0,0,1,438,89.54a5.7,5.7,0,0,1,5.68-5.69,6.08,6.08,0,0,1,5.92,5.92A5.7,5.7,0,0,1,443.87,95.46Zm10.7,3.15-4.36-4.36-0.9,0,0.4-.46,0.19-.32a7,7,0,0,0,1-3.66,7.47,7.47,0,0,0-7.28-7.28,7.06,7.06,0,0,0-7.05,7.05,7.48,7.48,0,0,0,7.28,7.28,7,7,0,0,0,3.55-1l0.27-.16,0.49-.39v0.8l4.44,4.44a0.67,0.67,0,0,0,.48.2,0.7,0.7,0,0,0,.49-0.2l1.15-1.15C454.94,99.2,454.89,98.93,454.57,98.61Z" transform="translate(-436.59 -82.49)"/>
</svg>
