<svg id="Layer_1" data-name="Layer 1" xmlns="http://www.w3.org/2000/svg" viewBox="0 0 20.73 24.39">
  <defs>
    <style>
      .cls-1 {
        fill-rule: evenodd;
      }
    </style>
  </defs>
  <title>mangento</title>
  <path class="cls-1" d="M658.51,350.41l-1.43-.84c-0.38-.22-0.76-0.44-1.12-0.67a0.3,0.3,0,0,1-.13-0.22q0-5.82,0-11.64a0.26,0.26,0,0,1,.16-0.25l6.65-4,3.38-2a0.27,0.27,0,0,1,.33,0l10,6.06a0.31,0.31,0,0,1,.18.31q0,5.76,0,11.53a0.3,0.3,0,0,1-.17.31l-2.5,1.46v-0.26q0-5.69,0-11.39a0.37,0.37,0,0,0-.21-0.37q-3.62-2.18-7.23-4.38a0.46,0.46,0,0,0-.56,0q-3.59,2.2-7.2,4.38a0.34,0.34,0,0,0-.19.34q0,5.7,0,11.41v0.29Z" transform="translate(-655.81 -330.67)"/>
  <path class="cls-1" d="M667.54,338l1.42,0.86c0.67,0.41,1.34.82,2,1.22a0.32,0.32,0,0,1,.18.33q0,5.75,0,11.49a0.31,0.31,0,0,1-.17.31L666.35,355a0.29,0.29,0,0,1-.35,0l-4.57-2.8a0.35,0.35,0,0,1-.19-0.34q0-5.75,0-11.49a0.28,0.28,0,0,1,.13-0.29l3.3-2,0.14-.07v0.28q0,6.68,0,13.35a0.39,0.39,0,0,0,.22.41c0.34,0.19.68,0.41,1,.62a0.22,0.22,0,0,0,.27,0c0.34-.22.69-0.43,1-0.64a0.32,0.32,0,0,0,.18-0.32q0-3.68,0-7.35V338Z" transform="translate(-655.81 -330.67)"/>
</svg>
