<svg id="Layer_1" data-name="Layer 1" xmlns="http://www.w3.org/2000/svg" viewBox="0 0 25.46 25.46">
  <defs>
    <style>
      .cls-1 {
        fill-rule: evenodd;
      }
    </style>
  </defs>
  <title>social-wp</title>
  <path class="cls-1" d="M163,33.71A9.33,9.33,0,0,1,163,35a12,12,0,0,1-1,4.56l-3.89,11.24A12.73,12.73,0,0,0,163,33.71ZM152,40.93L148.2,52a12.77,12.77,0,0,0,3.6.52,12.61,12.61,0,0,0,4.23-.73,1.21,1.21,0,0,1-.09-0.17Zm8.37-1.76a6.7,6.7,0,0,0-1.05-3.51,6,6,0,0,1-1.25-3,2.2,2.2,0,0,1,2.14-2.26h0.16a12.72,12.72,0,0,0-19.23,2.39l0.82,0c1.33,0,3.39-.16,3.39-0.16a0.53,0.53,0,0,1,.08,1s-0.69.08-1.46,0.12l4.64,13.78,2.79-8.35-2-5.43c-0.68,0-1.33-.12-1.33-0.12a0.53,0.53,0,0,1,.08-1s2.1,0.16,3.35.16,3.39-.16,3.39-0.16a0.53,0.53,0,0,1,.08,1s-0.69.08-1.46,0.12l4.6,13.68,1.27-4.24A11.92,11.92,0,0,0,160.39,39.17Zm-21.32.65a12.73,12.73,0,0,0,7.17,11.45l-6.07-16.63A12.68,12.68,0,0,0,139.06,39.82Z" transform="translate(-139.06 -27.09)"/>
</svg>
