<svg id="Layer_1" data-name="Layer 1" xmlns="http://www.w3.org/2000/svg" viewBox="0 0 27.27 27.27">
  <defs>
    <style>
      .cls-1 {
        fill-rule: evenodd;
      }
    </style>
  </defs>
  <title>social-jm</title>
  <path class="cls-1" d="M263.39,26.58A13.64,13.64,0,1,0,277,40.22,13.64,13.64,0,0,0,263.39,26.58Zm1.38,7.48a3.43,3.43,0,0,1,1.64-.26c0.26,0,.52.06,0.79,0.09a2.19,2.19,0,0,1,4.33.05,2.22,2.22,0,0,1-1.86,2.46,2,2,0,0,1,.09.42c0,0.42,0,.84,0,1.26a2.9,2.9,0,0,1-.56,1.38,5.2,5.2,0,0,1-.42.51,0.13,0.13,0,0,1-.22,0l-1.38-1.38a0.15,0.15,0,0,1,0-.25,1.33,1.33,0,0,0-.47-2.19,1.23,1.23,0,0,0-1.14.09,4.33,4.33,0,0,0-.62.55L263,38.66c-0.42.42-.85,0.84-1.26,1.26a0.2,0.2,0,0,1-.36,0c-0.41-.43-0.83-0.85-1.25-1.26a0.21,0.21,0,0,1,0-.36c1-1,2.09-2.07,3.12-3.12A4.66,4.66,0,0,1,264.77,34.06Zm-9.48-.26a2.19,2.19,0,0,1,4.15-.45c0.06,0.15.11,0.3,0.17,0.48l0.44,0a6.27,6.27,0,0,1,1,0,3.42,3.42,0,0,1,1.9,1,0.23,0.23,0,0,1,0,.23c-0.47.48-.95,1-1.42,1.43l-0.07.06-0.1-.08a1.31,1.31,0,0,0-1.32-.36,1.14,1.14,0,0,0-.86.71,1.37,1.37,0,0,0,.32,1.59c1,1,2,2,3,3L263,41.86a0.16,0.16,0,0,1,0,.28c-0.45.45-.91,0.9-1.36,1.36-0.14.15-.22,0-0.29,0-0.57-.56-1.13-1.13-1.7-1.7L257.85,40a3.62,3.62,0,0,1-1-3.22,0.76,0.76,0,0,0,0-.36,0.7,0.7,0,0,0-.31-0.15A2.18,2.18,0,0,1,255.28,33.81Zm7.58,12a3.51,3.51,0,0,1-3,.93l-0.14,0a0.16,0.16,0,0,0-.23.13,2.18,2.18,0,0,1-4.1.2,2.16,2.16,0,0,1,.81-2.69,2.13,2.13,0,0,1,.48-0.23,0.21,0.21,0,0,0,.17-0.28,3.63,3.63,0,0,1,.79-3l0.22-.24,0.12-.08,1.54,1.58a4,4,0,0,0-.35.6,1.34,1.34,0,0,0,2.24,1.38l3.43-3.43,0.15-.17,1.64,1.66c-0.29.27-.57,0.53-0.85,0.8C264.81,43.9,263.85,44.88,262.86,45.83Zm8,2a2.16,2.16,0,0,1-2.69.25,1.93,1.93,0,0,1-.87-1.14A0.24,0.24,0,0,0,267,46.7a6.18,6.18,0,0,1-1.25.07,3.46,3.46,0,0,1-2.15-1,0.13,0.13,0,0,1,0-.23L265,44.12a0.15,0.15,0,0,1,.26,0,1.29,1.29,0,0,0,1,.38,1.35,1.35,0,0,0,1.13-.83,1.25,1.25,0,0,0-.27-1.4l-1.53-1.56-2-2a0.16,0.16,0,0,1,0-.27c0.46-.45.93-0.91,1.38-1.37,0.15-.15.22,0,0.28,0l1.25,1.27,2.19,2.19a3.69,3.69,0,0,1,.94,1.6,7.2,7.2,0,0,1,.15,1c0,0.23-.08.46-0.11,0.7a0.22,0.22,0,0,0,.14.15,2.28,2.28,0,0,1,1.28.83A2.17,2.17,0,0,1,270.88,47.79Z" transform="translate(-249.76 -26.58)"/>
</svg>
