<svg id="Layer_1" data-name="Layer 1" xmlns="http://www.w3.org/2000/svg" viewBox="0 0 32.73 29.09">
  <defs>
    <style>
      .cls-1 {
        fill-rule: evenodd;
      }
    </style>
  </defs>
  <title>video</title>
  <g>
    <path class="cls-1" d="M202.17,271.11V294h26.53V271.11H202.17Zm26.53,24.25H202.17a1.33,1.33,0,0,1-1.33-1.33V271.11a1.33,1.33,0,0,1,1.33-1.33h26.53a1.33,1.33,0,0,1,1.33,1.33V294A1.33,1.33,0,0,1,228.71,295.36Z" transform="translate(-200.84 -269.78)"/>
    <path d="M232.24,298.88H205.7a1.33,1.33,0,0,1-1.33-1.33h27.86V273.3a1.33,1.33,0,0,1,1.33,1.33v22.93A1.33,1.33,0,0,1,232.24,298.88Z" transform="translate(-200.84 -269.78)"/>
    <path class="cls-1" d="M208,278.17a0.41,0.41,0,0,0-.41.41v8.27a0.41,0.41,0,0,0,.41.41h9.77a0.41,0.41,0,0,0,.42-0.41v-8.27a0.41,0.41,0,0,0-.42-0.41H208Zm9.77,10.42H208a1.74,1.74,0,0,1-1.74-1.74v-8.27a1.74,1.74,0,0,1,1.74-1.74h9.77a1.74,1.74,0,0,1,1.75,1.74v8.27A1.74,1.74,0,0,1,217.75,288.58Z" transform="translate(-200.84 -269.78)"/>
    <path class="cls-1" d="M220.15,283.2l3.68,3.42v-7.9L220.15,282v1.21Zm5,6.48-6.34-5.9V281.4l6.34-5.65v13.93Z" transform="translate(-200.84 -269.78)"/>
  </g>
</svg>
