<svg id="Layer_1" data-name="Layer 1" xmlns="http://www.w3.org/2000/svg" viewBox="0 0 18.17 18.18">
  <defs>
    <style>
      .cls-1 {
        fill-rule: evenodd;
      }
    </style>
  </defs>
  <title>view-magnifier</title>
  <g>
    <path class="cls-1" d="M327.32,96.62a6.6,6.6,0,0,1-6.43-6.43A6.19,6.19,0,0,1,327.07,84a6.6,6.6,0,0,1,6.43,6.43A6.19,6.19,0,0,1,327.32,96.62Zm9.94,1.76-3.05-3.07-1,0,0.43-.5,0.21-.35a7.65,7.65,0,0,0,1.11-4,8.12,8.12,0,0,0-7.91-7.91,7.67,7.67,0,0,0-7.66,7.66,8.12,8.12,0,0,0,7.91,7.91,7.7,7.7,0,0,0,3.86-1l0.29-.17,0.53-.42v0.88l3.13,3.15a0.74,0.74,0,0,0,.53.22,0.73,0.73,0,0,0,.52-0.22l1.25-1.25C337.67,99,337.61,98.73,337.26,98.38Z" transform="translate(-319.41 -82.53)"/>
    <g>
      <path class="cls-1" d="M327,92.17a2.06,2.06,0,1,0-2-2.06A2,2,0,0,0,327,92.17ZM321.68,90a2.5,2.5,0,0,1,.21-0.3,8.81,8.81,0,0,1,3-2.21,5,5,0,0,1,4.06,0,8.86,8.86,0,0,1,3.17,2.33,1.68,1.68,0,0,1,.12.2V90.2a1.46,1.46,0,0,1-.36.46,9,9,0,0,1-2.64,1.94,5.26,5.26,0,0,1-1.86.53,5.17,5.17,0,0,1-2.47-.4,9.06,9.06,0,0,1-3.13-2.29,1.61,1.61,0,0,1-.15-0.24V90Z" transform="translate(-319.41 -82.53)"/>
      <path class="cls-1" d="M327.65,90.11a0.68,0.68,0,1,1-.67-0.68A0.69,0.69,0,0,1,327.65,90.11Z" transform="translate(-319.41 -82.53)"/>
    </g>
  </g>
</svg>
