<svg id="Layer_1" data-name="Layer 1" xmlns="http://www.w3.org/2000/svg" viewBox="0 0 18.27 18.27"><defs><style>.cls-1{fill-rule:evenodd;fill:#d4d1d7}</style></defs><title>magnifier</title><path class="cls-1" d="M443.87 95.46a6.07 6.07 0 0 1-5.87-5.92 5.7 5.7 0 0 1 5.68-5.69 6.08 6.08 0 0 1 5.92 5.92 5.7 5.7 0 0 1-5.73 5.69zm10.7 3.15l-4.36-4.36h-.9l.4-.46.19-.32a7 7 0 0 0 1-3.66 7.47 7.47 0 0 0-7.28-7.28 7.06 7.06 0 0 0-7.05 7.05 7.48 7.48 0 0 0 7.28 7.28 7 7 0 0 0 3.55-1l.27-.16.49-.39v.8l4.44 4.44a.67.67 0 0 0 .48.2.7.7 0 0 0 .49-.2l1.15-1.15c.22-.2.17-.47-.15-.79z" transform="translate(-436.59 -82.49)"/></svg>