<svg id="Layer_1" data-name="Layer 1" xmlns="http://www.w3.org/2000/svg" viewBox="0 0 20.06 16.05">
  <defs>
    <style>
      .cls-1 {
        fill-rule: evenodd;
      }
    </style>
  </defs>
  <title>add-person</title>
  <g>
    <path class="cls-1" d="M509.91,134.89a0.44,0.44,0,0,0,.77-0.3v-3.67h3.67a0.48,0.48,0,0,0,0-1h-3.67v-3.66a0.44,0.44,0,0,0-.45-0.45,0.48,0.48,0,0,0-.45.48V130h-3.44a0.46,0.46,0,0,0-.3.77,0.4,0.4,0,0,0,.3.14h3.44v3.64A0.46,0.46,0,0,0,509.91,134.89Z" transform="translate(-494.77 -125.87)"/>
    <g>
      <path d="M500.71,136.32a2.94,2.94,0,0,0,2.66-3.15c0-2.42-1.19-3.16-2.66-3.16s-2.67.74-2.67,3.16A2.94,2.94,0,0,0,500.71,136.32Z" transform="translate(-494.77 -125.87)"/>
      <path d="M506.6,141l-1.34-3.06a0.69,0.69,0,0,0-.31-0.33l-2.08-1.1a0.14,0.14,0,0,0-.14,0,3.26,3.26,0,0,1-4,0,0.13,0.13,0,0,0-.14,0l-2.09,1.1a0.67,0.67,0,0,0-.31.33L494.83,141a0.68,0.68,0,0,0,.61,1H506a0.67,0.67,0,0,0,.56-0.31A0.69,0.69,0,0,0,506.6,141Z" transform="translate(-494.77 -125.87)"/>
    </g>
  </g>
</svg>
