<svg id="Layer_1" data-name="Layer 1" xmlns="http://www.w3.org/2000/svg" viewBox="0 0 30.29 30.29">
  <defs>
    <style>
      .cls-1 {
        fill-rule: evenodd;
      }
    </style>
  </defs>
  <title>add-circle</title>
  <g>
    <path class="cls-1" d="M423.71,196.67a15.14,15.14,0,1,0,15.14,15.14A15.16,15.16,0,0,0,423.71,196.67Zm0,29.09a13.94,13.94,0,1,1,13.94-13.94A14,14,0,0,1,423.71,225.76Z" transform="translate(-408.56 -196.67)"/>
    <path class="cls-1" d="M429.38,211.15l-5.23,0v-5.09a0.62,0.62,0,0,0-.65-0.63,0.67,0.67,0,0,0-.65.66v5.06l-4.91,0a0.62,0.62,0,0,0-.61.63,0.64,0.64,0,0,0,.18.45,0.62,0.62,0,0,0,.43.18l4.91,0v5.06a0.67,0.67,0,0,0,.65.66,0.63,0.63,0,0,0,.65-0.63v-5.09l5.23,0A0.67,0.67,0,1,0,429.38,211.15Z" transform="translate(-408.56 -196.67)"/>
  </g>
</svg>
