<svg id="Layer_1" data-name="Layer 1" xmlns="http://www.w3.org/2000/svg" viewBox="0 0 32.86 32.72">
  <defs>
    <style>
      .cls-1 {
        fill-rule: evenodd;
      }
    </style>
  </defs>
  <title>add-content</title>
  <g>
    <path class="cls-1" d="M175.13,195.7l4.6,4.6h-4.6v-4.6Zm3.46,23.7h-5.66a3,3,0,1,1,0-6h5.66v-5.66a3,3,0,0,1,3-3h0.07v-4.53l-6.59-6.53H158.72V223h19.87V219.4Z" transform="translate(-158.72 -193.65)"/>
    <path class="cls-1" d="M190.28,217.68h-7.38v7.38a1.3,1.3,0,1,1-2.6,0v-7.38h-7.37a1.3,1.3,0,1,1,0-2.6h7.37v-7.38a1.3,1.3,0,0,1,2.6,0v7.38h7.38A1.3,1.3,0,0,1,190.28,217.68Z" transform="translate(-158.72 -193.65)"/>
  </g>
</svg>
