<svg id="Layer_1" data-name="Layer 1" xmlns="http://www.w3.org/2000/svg" viewBox="0 0 28.99 24.16">
  <title>basecamp</title>
  <path id="Basecamp" d="M610.34,349.41a10,10,0,0,0,.66.87,10.43,10.43,0,0,0,1.57,1.5,13.35,13.35,0,0,0,4.08,2.1,22.75,22.75,0,0,0,5.22,1,32.86,32.86,0,0,0,6.17,0,21,21,0,0,0,5.55-1.3,14.39,14.39,0,0,0,4.28-2.64,6.39,6.39,0,0,0,.9-1,2,2,0,0,0,.43-1,4.73,4.73,0,0,0-.12-1.32c-0.1-.48-0.22-0.95-0.34-1.42,0-.17-0.09-0.34-0.12-0.52a24.85,24.85,0,0,0-2.13-5.89,22.27,22.27,0,0,0-3-4.4,14.06,14.06,0,0,0-3.81-3.13,12.69,12.69,0,0,0-2.43-1c-0.46-.14-0.92-0.25-1.38-0.34a1.88,1.88,0,0,0-.36-0.05h-1.35a3.23,3.23,0,0,0-.41,0l-0.37.05-0.7.14a10.27,10.27,0,0,0-1.36.43,12.46,12.46,0,0,0-2.51,1.35,17.43,17.43,0,0,0-4,3.88,22.33,22.33,0,0,0-2.86,5.14,28.46,28.46,0,0,0-1.64,6,5.29,5.29,0,0,0-.1.81v0.43a0.25,0.25,0,0,0,0,.17Zm1.89-1.28c0-.14.05-0.27,0.08-0.41s0.13-.5.22-0.75a13.46,13.46,0,0,1,1.34-2.68l0.8-1.26c0.27-.43.55-0.85,0.86-1.25a4.4,4.4,0,0,1,1.94-1.61c1.14-.37,2,0.81,2.64,1.54a4.21,4.21,0,0,0,1.29,1.09,1.58,1.58,0,0,0,.76.15,1.87,1.87,0,0,0,1-.52,13.12,13.12,0,0,0,2-2.26,29.41,29.41,0,0,1,2.05-2.57,3,3,0,0,1,1.08-.91,0.85,0.85,0,0,1,.62,0,1,1,0,0,1,.29.2,3.08,3.08,0,0,0,.31.25,20.19,20.19,0,0,1,2.27,2c0.62,0.63,1.2,1.3,1.76,2a19,19,0,0,1,1.52,2.09c0.55,0.9,1,1.85,1.53,2.77a3,3,0,0,1,.47,2.76L637,349a7.31,7.31,0,0,1-3.79,2.84,19.17,19.17,0,0,1-5.58,1.15,36.31,36.31,0,0,1-5.88-.05,19.45,19.45,0,0,1-5.2-1.12,8.37,8.37,0,0,1-3.65-2.52,5.75,5.75,0,0,1-.57-0.88l-0.06-.11A0.18,0.18,0,0,1,612.24,348.14Z" transform="translate(-610.22 -330.84)"/>
</svg>
