<svg id="Layer_1" data-name="Layer 1" xmlns="http://www.w3.org/2000/svg" viewBox="0 0 18.18 18.18">
  <defs>
    <style>
      .cls-1 {
        fill-rule: evenodd;
      }
    </style>
  </defs>
  <title>chat</title>
  <path class="cls-1" d="M276.5,124.8h-8.18a1.94,1.94,0,0,0-1.82,2v8.08h6.37l2.73,3v-3h0.91a1.93,1.93,0,0,0,1.82-2v-6.06A1.93,1.93,0,0,0,276.5,124.8Zm-11.09,11.31v-6.26H262a1.93,1.93,0,0,0-1.82,2v6.06a1.93,1.93,0,0,0,1.82,2h0.91v3l2.73-3h4.54a1.93,1.93,0,0,0,1.82-2v-1.84l-0.18,0h-6.37Z" transform="translate(-260.14 -124.8)"/>
</svg>
