<svg id="Layer_1" data-name="Layer 1" xmlns="http://www.w3.org/2000/svg" viewBox="0 0 20.91 23.64">
  <defs>
    <style>
      .cls-1 {
        fill-rule: evenodd;
      }
    </style>
  </defs>
  <title>entry</title>
  <path class="cls-1" d="M154.54,90.64a1.4,1.4,0,0,1,0,2l-4.36,4.09a1.26,1.26,0,0,1-.87.35A1.33,1.33,0,0,1,148,95.75a1.39,1.39,0,0,1,.43-1L150.26,93h-7.92a1.37,1.37,0,0,1,0-2.73h7.92l-1.82-1.71a1.39,1.39,0,0,1-.43-1,1.34,1.34,0,0,1,1.31-1.36,1.26,1.26,0,0,1,.87.35Zm7.4,1v10.45a1.34,1.34,0,0,1-1.31,1.36H154.1a1.37,1.37,0,0,1,0-2.73h5.23V82.53H154.1a1.37,1.37,0,0,1,0-2.73h6.53a1.34,1.34,0,0,1,1.31,1.36V91.62h0Z" transform="translate(-141.04 -79.8)"/>
</svg>
