<svg id="Layer_1" data-name="Layer 1" xmlns="http://www.w3.org/2000/svg" viewBox="0 0 21.55 16.71">
  <defs>
    <style>
      .cls-1 {
        fill-rule: evenodd;
      }
    </style>
  </defs>
  <title>envelope</title>
  <path class="cls-1" d="M238,130.87l-9.23,5.8a2.18,2.18,0,0,1-2.17,0l-9.23-5.8c-0.46-.29-0.46,0-0.46.31v10.56a1.55,1.55,0,0,0,1.19,1.38h19.18a1.56,1.56,0,0,0,1.19-1.38V131.19C238.45,130.92,238.45,130.58,238,130.87ZM217.6,128l9,5.8a2.18,2.18,0,0,0,2.17,0l9-5.8c0.59-.38,1.14-1.56.07-1.56H217.54C216.47,126.43,217,127.62,217.6,128Z" transform="translate(-216.89 -126.43)"/>
</svg>
