<svg id="Layer_1" data-name="Layer 1" xmlns="http://www.w3.org/2000/svg" viewBox="0 0 15.97 15.97">
  <defs>
    <style>
      .cls-1 {
        fill-rule: evenodd;
      }
    </style>
  </defs>
  <title>notification</title>
  <path class="cls-1" d="M299.12,138.88c-0.55,0-1-.34-0.57-1.82l0.63-2.63c0.11-.42.13-0.59,0-0.59a4.18,4.18,0,0,0-1.31.58L297.6,134a7.38,7.38,0,0,1,3.57-1.79c0.55,0,.64.66,0.37,1.67l-0.73,2.76c-0.13.49-.08,0.66,0.05,0.66a2.87,2.87,0,0,0,1.25-.63l0.31,0.42A5.81,5.81,0,0,1,299.12,138.88Zm2.08-10.32a0.92,0.92,0,0,1,1,1,1.34,1.34,0,0,1-1.46,1.29,0.94,0.94,0,0,1-1.11-1A1.38,1.38,0,0,1,301.21,128.57Zm-0.89-2.66a8,8,0,1,0,8.09,7.88A8,8,0,0,0,300.32,125.91Z" transform="translate(-292.44 -125.91)"/>
</svg>
