<svg id="Layer_1" data-name="Layer 1" xmlns="http://www.w3.org/2000/svg" viewBox="0 0 19.09 18.18">
  <title>person-aura</title>
  <g>
    <path d="M411.87,97.6c-1.67-.61-2.21-1.13-2.21-2.24,0-.66.51-0.45,0.73-1.67,0.09-.51.55,0,0.63-1.16a0.58,0.58,0,0,0-.25-0.57s0.13-.68.17-1.21-0.37-2.34-2.69-2.34-2.75,1.69-2.69,2.34,0.17,1.21.17,1.21a0.58,0.58,0,0,0-.25.57c0.09,1.16.54,0.66,0.63,1.16,0.22,1.22.73,1,.73,1.67,0,1.11-.53,1.63-2.21,2.24s-2.76,1.24-2.76,1.67v1.44h12.74V99.27C414.63,98.85,413.55,98.22,411.87,97.6Z" transform="translate(-398.74 -82.53)"/>
    <path d="M401.16,98.17a0.64,0.64,0,0,1-.52-0.26,9.55,9.55,0,1,1,15.55-.33,0.65,0.65,0,0,1-.9.17,0.66,0.66,0,0,1-.17-0.91,8.25,8.25,0,1,0-13.43.29,0.66,0.66,0,0,1-.13.92A0.65,0.65,0,0,1,401.16,98.17Z" transform="translate(-398.74 -82.53)"/>
    <path d="M403.27,96.65a0.64,0.64,0,0,1-.52-0.27A6.91,6.91,0,1,1,414,96.14a0.65,0.65,0,0,1-.9.17,0.65,0.65,0,0,1-.17-0.91,5.62,5.62,0,1,0-9.14.2,0.66,0.66,0,0,1-.13.91A0.64,0.64,0,0,1,403.27,96.65Z" transform="translate(-398.74 -82.53)"/>
  </g>
</svg>
