<svg id="Layer_1" data-name="Layer 1" xmlns="http://www.w3.org/2000/svg" viewBox="0 0 10.91 10.91">
  <defs>
    <style>
      .cls-1 {
        fill-rule: evenodd;
      }
    </style>
  </defs>
  <title>remove</title>
  <path class="cls-1" d="M436.92,38l-3.81,3.81,3.81,3.81a1,1,0,0,1,.28.68,1,1,0,0,1-1.64.68l-3.81-3.81L427.94,47a1,1,0,0,1-1.36-1.36l3.81-3.81L426.57,38a1,1,0,1,1,1.36-1.36l3.81,3.81,3.81-3.81a1,1,0,0,1,.68-0.28,1,1,0,0,1,1,1A1,1,0,0,1,436.92,38Z" transform="translate(-426.29 -36.34)"/>
</svg>
