<svg id="Layer_1" data-name="Layer 1" xmlns="http://www.w3.org/2000/svg" viewBox="0 0 25.45 17.27">
  <title>reverse-direction</title>
  <g>
    <path d="M155.31,134.84h9.89v3a0.49,0.49,0,0,0,.15.36,0.53,0.53,0,0,0,.73,0l5.16-5.07a0.48,0.48,0,0,0,.15-0.36,0.47,0.47,0,0,0-.15-0.37l-5.14-5.05a0.6,0.6,0,0,0-.39-0.16,0.51,0.51,0,0,0-.37.14,0.5,0.5,0,0,0-.15.36v3h-9.89a0.5,0.5,0,0,0-.36.15,0.48,0.48,0,0,0-.15.36v3a0.48,0.48,0,0,0,.15.36A0.5,0.5,0,0,0,155.31,134.84Z" transform="translate(-145.94 -127.23)"/>
    <path d="M162,136.9h-9.89v-3a0.49,0.49,0,0,0-.15-0.36,0.53,0.53,0,0,0-.73,0l-5.16,5.07a0.48,0.48,0,0,0-.15.36,0.46,0.46,0,0,0,.15.35l5.14,5.07a0.6,0.6,0,0,0,.39.16,0.5,0.5,0,0,0,.36-0.15,0.5,0.5,0,0,0,.15-0.36v-3H162a0.5,0.5,0,0,0,.37-0.15,0.49,0.49,0,0,0,.15-0.36v-3a0.49,0.49,0,0,0-.15-0.35A0.5,0.5,0,0,0,162,136.9Z" transform="translate(-145.94 -127.23)"/>
  </g>
</svg>
