<svg id="Layer_1" data-name="Layer 1" xmlns="http://www.w3.org/2000/svg" viewBox="0 0 18.17 18.18">
  <defs>
    <style>
      .cls-1 {
        fill-rule: evenodd;
      }
    </style>
  </defs>
  <title>seo-magnifier</title>
  <g>
    <path class="cls-1" d="M296.54,96.62a6.6,6.6,0,0,1-6.43-6.43A6.19,6.19,0,0,1,296.29,84a6.6,6.6,0,0,1,6.43,6.43A6.18,6.18,0,0,1,296.54,96.62Zm9.94,1.76-3.05-3.07-1,0,0.43-.5,0.21-.35a7.65,7.65,0,0,0,1.11-4,8.12,8.12,0,0,0-7.91-7.91,7.67,7.67,0,0,0-7.66,7.66,8.12,8.12,0,0,0,7.91,7.91,7.65,7.65,0,0,0,3.86-1l0.3-.17,0.53-.42v0.88l3.13,3.15a0.75,0.75,0,0,0,.53.21,0.74,0.74,0,0,0,.52-0.21l1.25-1.25C306.89,99,306.83,98.73,306.48,98.38Z" transform="translate(-288.63 -82.53)"/>
    <g>
      <path class="cls-1" d="M293.83,89.15l-0.1-.22a0.89,0.89,0,0,0-.11-0.18,0.48,0.48,0,0,0-.15-0.13,0.49,0.49,0,0,0-.22,0,0.42,0.42,0,0,0-.19,0,0.36,0.36,0,0,0-.13.1,0.46,0.46,0,0,0-.08.15,0.62,0.62,0,0,0,0,.18,0.39,0.39,0,0,0,0,.15,0.49,0.49,0,0,0,.06.13l0.1,0.1,0.1,0.08L293.86,90a2.14,2.14,0,0,1,.44.32,1.67,1.67,0,0,1,.27.33,1.13,1.13,0,0,1,.13.32,1.35,1.35,0,0,1-.07.89,1.36,1.36,0,0,1-.78.78,1.55,1.55,0,0,1-.59.11,1.48,1.48,0,0,1-.53-0.09,1.46,1.46,0,0,1-.43-0.24A1.57,1.57,0,0,1,292,92a2.14,2.14,0,0,1-.22-0.46l0.77-.36,0.15,0.24a1.68,1.68,0,0,0,.18.25,1,1,0,0,0,.22.19,0.53,0.53,0,0,0,.28.07,0.32,0.32,0,0,0,.16,0,0.42,0.42,0,0,0,.13-0.1,0.63,0.63,0,0,0,.09-0.15,0.45,0.45,0,0,0,0-.17,0.59,0.59,0,0,0-.09-0.33,0.71,0.71,0,0,0-.22-0.22l-0.81-.48a2,2,0,0,1-.31-0.22,1.66,1.66,0,0,1-.25-0.27,1.26,1.26,0,0,1-.16-0.32,1.17,1.17,0,0,1-.06-0.37,1.42,1.42,0,0,1,.11-0.56,1.33,1.33,0,0,1,.3-0.44,1.35,1.35,0,0,1,.46-0.29,1.64,1.64,0,0,1,.57-0.1,1.35,1.35,0,0,1,.81.24,1.37,1.37,0,0,1,.5.7Z" transform="translate(-288.63 -82.53)"/>
      <polygon class="cls-1" points="6.7 5.42 9.06 5.42 8.99 6.14 7.61 6.14 7.61 7.25 8.59 7.25 8.58 8.03 7.61 8.03 7.61 9.34 9.11 9.34 9.04 10.07 6.7 10.07 6.7 5.42"/>
      <path class="cls-1" d="M299.55,91.93a0.37,0.37,0,0,0,.29-0.12,0.88,0.88,0,0,0,.17-0.36,2.84,2.84,0,0,0,.07-0.57c0-.23,0-0.48,0-0.75V89.81c0-.1,0-0.22,0-0.33a3.2,3.2,0,0,0-.05-0.33,1.41,1.41,0,0,0-.09-0.28,0.66,0.66,0,0,0-.15-0.2,0.33,0.33,0,0,0-.22-0.07,0.31,0.31,0,0,0-.21.07,0.6,0.6,0,0,0-.15.2,1.35,1.35,0,0,0-.09.28,3.23,3.23,0,0,0-.05.33c0,0.12,0,.23,0,0.33v0.31c0,0.28,0,.53,0,0.75a3.5,3.5,0,0,0,.07.57,0.92,0.92,0,0,0,.16.36A0.36,0.36,0,0,0,299.55,91.93Zm0,0.77a1.2,1.2,0,0,1-.52-0.1,1.12,1.12,0,0,1-.38-0.28,1.52,1.52,0,0,1-.26-0.42,2.73,2.73,0,0,1-.16-0.53,4.15,4.15,0,0,1-.08-0.6c0-.21,0-0.43,0-0.65a4.8,4.8,0,0,1,.08-0.91,2.31,2.31,0,0,1,.26-0.71A1.32,1.32,0,0,1,298.9,88a1.24,1.24,0,0,1,.65-0.17,1.27,1.27,0,0,1,.65.17,1.29,1.29,0,0,1,.45.46,2.23,2.23,0,0,1,.26.71,4.46,4.46,0,0,1,.08.91q0,0.32,0,.65a4.77,4.77,0,0,1-.09.6,3,3,0,0,1-.17.53,1.52,1.52,0,0,1-.27.42,1.12,1.12,0,0,1-.38.28A1.24,1.24,0,0,1,299.55,92.7Z" transform="translate(-288.63 -82.53)"/>
    </g>
  </g>
</svg>
