<svg id="Layer_1" data-name="Layer 1" xmlns="http://www.w3.org/2000/svg" viewBox="0 0 27.27 27.27">
  <defs>
    <style>
      .cls-1 {
        fill-rule: evenodd;
      }
    </style>
  </defs>
  <title>social-mg</title>
  <path class="cls-1" d="M226.06,26.37A13.64,13.64,0,1,0,239.7,40,13.63,13.63,0,0,0,226.06,26.37ZM230,46.6a0.23,0.23,0,0,1-.13.24l-3.65,2.21a0.22,0.22,0,0,1-.27,0l-3.61-2.19a0.27,0.27,0,0,1-.15-0.26q0-4.5,0-9a0.22,0.22,0,0,1,.1-0.23l2.6-1.58,0.11-.05V36q0,5.23,0,10.45a0.31,0.31,0,0,0,.18.32c0.27,0.15.54,0.32,0.8,0.48a0.18,0.18,0,0,0,.22,0c0.27-.17.55-0.34,0.83-0.5a0.25,0.25,0,0,0,.15-0.25q0-2.88,0-5.75v-5l1.12,0.67,1.59,1a0.25,0.25,0,0,1,.14.26Q230,42.1,230,46.6Zm4.26-2.53a0.23,0.23,0,0,1-.13.24l-2,1.15v-0.2q0-4.46,0-8.92A0.29,0.29,0,0,0,232,36l-5.71-3.43a0.36,0.36,0,0,0-.44,0L220.15,36a0.26,0.26,0,0,0-.15.27v9.16l-1.13-.66L218,44.28a0.24,0.24,0,0,1-.1-0.17q0-4.56,0-9.11a0.21,0.21,0,0,1,.13-0.2l5.25-3.15,2.67-1.6a0.21,0.21,0,0,1,.26,0l7.92,4.75a0.24,0.24,0,0,1,.14.24Q234.23,39.55,234.24,44.06Z" transform="translate(-212.42 -26.37)"/>
</svg>
