<svg id="Layer_1" data-name="Layer 1" xmlns="http://www.w3.org/2000/svg" viewBox="0 0 25.46 24.55">
  <defs>
    <style>
      .cls-1 {
        fill: #231f20;
        fill-rule: evenodd;
      }
    </style>
  </defs>
  <title>star</title>
  <path class="cls-1" d="M229.15,79.35a1,1,0,0,0-1,.76l-2.5,7.78h-8.22a1.07,1.07,0,0,0-.58,1.92c0.17,0.11,6.64,4.87,6.64,4.87s-2.49,7.68-2.54,7.81a1.25,1.25,0,0,0-.06.36,1,1,0,0,0,1,1,1,1,0,0,0,.59-0.19l6.63-4.86,6.63,4.86a1,1,0,0,0,.59.19,1,1,0,0,0,1-1,1.13,1.13,0,0,0-.07-0.36c0-.12-2.53-7.81-2.53-7.81s6.47-4.76,6.64-4.87a1.06,1.06,0,0,0,.44-0.86,1,1,0,0,0-1-1.06h-8.22l-2.52-7.78A1,1,0,0,0,229.15,79.35Z" transform="translate(-216.42 -79.35)"/>
</svg>
