<svg id="Layer_1" data-name="Layer 1" xmlns="http://www.w3.org/2000/svg" viewBox="0 0 39.92 29.04"><defs><style>.cls-1{fill:#fff;fill-rule:evenodd}</style></defs><title>logo</title><path class="cls-1" d="M336.08 285.42v6.29l-1.13-.31c-7.81-1.93-15.15-.9-21.8 3.76A17.72 17.72 0 0 0 306 305a15.62 15.62 0 0 0 0 8.84.21.21 0 0 1 0 .2c-.18-.46-.38-.9-.53-1.37a16.16 16.16 0 0 1 3.06-16 22.11 22.11 0 0 1 11.92-7.34l.61-.17a24.36 24.36 0 0 0-9.36 2.59 21.71 21.71 0 0 0-7.49 6.17v-.45-11.68-.3h32z" transform="translate(-304.09 -285.42)"/><path class="cls-1" d="M344 294.49c-1.37.07-2.66.11-4 .21s-2.57.26-3.89.4v19.32H321.1a2 2 0 0 1-1.88-1 11.45 11.45 0 0 1-2-6.41 11.27 11.27 0 0 1 2.63-7.21 17.17 17.17 0 0 1 8.1-5.53 23.59 23.59 0 0 1 15.8.1z" transform="translate(-304.09 -285.42)"/></svg>