<svg id="Layer_1" data-name="Layer 1" xmlns="http://www.w3.org/2000/svg" viewBox="0 0 191.5 29.04"><defs><style>.cls-1,.cls-2{fill:#6944b7;fill-rule:evenodd}.cls-2{fill:#2482ff}</style></defs><title>logo</title><path class="cls-1" d="M336.08 285.42v6.29l-1.13-.31c-7.81-1.93-15.15-.9-21.8 3.76A17.72 17.72 0 0 0 306 305a15.62 15.62 0 0 0 0 8.84.21.21 0 0 1 0 .2c-.18-.46-.38-.9-.53-1.37a16.16 16.16 0 0 1 3.06-16 22.11 22.11 0 0 1 11.92-7.34l.61-.17a24.36 24.36 0 0 0-9.36 2.59 21.71 21.71 0 0 0-7.49 6.17v-.45-11.68-.3h32z" transform="translate(-304.09 -285.42)"/><path class="cls-2" d="M495.59 314.14h-2.82a.38.38 0 0 1-.47-.46v-6.07a3.39 3.39 0 0 0-2.71-3.39 3.35 3.35 0 0 0-4 2.75 7.77 7.77 0 0 0-.07 1v5.73a.35.35 0 0 1-.43.42h-2.49a.29.29 0 0 1-.35-.34v-15.82a.3.3 0 0 1 .37-.37h2.52c.32 0 .38.13.38.4v3.75l.48-.19a6.63 6.63 0 0 1 7.63 1.36 6.34 6.34 0 0 1 1.82 3.84 1.75 1.75 0 0 0 .09.32v7.09z" transform="translate(-304.09 -285.42)"/><path class="cls-1" d="M344 294.49c-1.37.07-2.66.11-4 .21s-2.57.26-3.89.4v19.32H321.1a2 2 0 0 1-1.88-1 11.45 11.45 0 0 1-2-6.41 11.27 11.27 0 0 1 2.63-7.21 17.17 17.17 0 0 1 8.1-5.53 23.59 23.59 0 0 1 15.8.1z" transform="translate(-304.09 -285.42)"/><path class="cls-2" d="M394 305.88a2.82 2.82 0 0 0-1.21-1.28 3.25 3.25 0 0 0-3.47 0 3.21 3.21 0 0 0-1.6 3 3.36 3.36 0 0 0 3.34 3.22h6.26a.35.35 0 0 1 .43.43v2.49a.29.29 0 0 1-.35.35c-2.24 0-4.48.08-6.71 0a6.61 6.61 0 1 1 7-7.52 22.45 22.45 0 0 1 .09 2.25c0 .26-.1.32-.34.32h-7.54c-.32 0-.38-.13-.37-.41v-2.45a.34.34 0 0 1 .41-.41H394zM440.18 313.27l-.41.17a6.61 6.61 0 1 1 3.69-6.68 8.41 8.41 0 0 1 0 1v5.92c0 .34-.08.47-.44.46h-2.34c-.37 0-.55-.07-.49-.47a1.85 1.85 0 0 0-.01-.4zm0-5.77a3.37 3.37 0 0 0-6.74-.07 3.45 3.45 0 0 0 3.09 3.43 3.39 3.39 0 0 0 3.7-3.36zM364 307.51a6.61 6.61 0 1 1-6.61-6.63 6.63 6.63 0 0 1 6.61 6.63zm-6.62 3.34a3.37 3.37 0 1 0-3.35-3.39 3.36 3.36 0 0 0 3.3 3.4zM398.21 310.26v-2.83a6.61 6.61 0 0 1 13.13-1.08 6 6 0 0 1 .09 1v6.25a.37.37 0 0 1-.47.46h-2.41a.32.32 0 0 1-.39-.39v-6.22a3.36 3.36 0 0 0-6.72-.13c-.05 2.11 0 4.22 0 6.33 0 .3-.08.42-.4.41h-2.45a.35.35 0 0 1-.43-.43v-3.43zM444 304.5v-3.2a.33.33 0 0 1 .41-.4h2.45a.33.33 0 0 1 .4.41v6.25a3.38 3.38 0 0 0 6.75-.06v-6.14c0-.36.1-.48.46-.47h2.41a.32.32 0 0 1 .4.38v6.14a6.62 6.62 0 0 1-13.19.81c-.1-1.23 0-2.48 0-3.72H444zM377.68 310.28v3.43a.33.33 0 0 1-.41.41h-2.37a.34.34 0 0 1-.43-.43v-6a3.4 3.4 0 0 0-2.69-3.45 3.33 3.33 0 0 0-4.07 3.18v6.29c0 .33-.08.44-.42.43h-2.45a.31.31 0 0 1-.4-.38c0-2.21-.06-4.42 0-6.63a6.53 6.53 0 0 1 5.07-6.05 6.62 6.62 0 0 1 8.09 5.57 30.74 30.74 0 0 1 0 3.65zM457.78 310.25v-3.2a6.16 6.16 0 0 1 2.58-4.82 6.62 6.62 0 0 1 10.64 5.26v6.18a.36.36 0 0 1-.45.44h-2.41a.33.33 0 0 1-.41-.41v-6.18a3.4 3.4 0 0 0-2.88-3.36 3.34 3.34 0 0 0-3.77 2.56 4.27 4.27 0 0 0-.1 1v6a.38.38 0 0 1-.47.47h-2.34c-.34 0-.43-.12-.42-.44v-3.43zM479 314.11a8 8 0 0 1-3.3-.44 6.67 6.67 0 0 1-4.18-6.23 6.61 6.61 0 0 1 6-6.51 33.21 33.21 0 0 1 3.69 0 .38.38 0 0 1 .24.27v2.67c0 .27-.14.3-.36.3H478a3.36 3.36 0 0 0-.53 6.66 2.75 2.75 0 0 0 .52 0h3a.33.33 0 0 1 .41.41v2.49a.3.3 0 0 1-.37.37c-.6 0-1.19.01-2.03.01z" transform="translate(-304.09 -285.42)"/><path class="cls-2" d="M348.48 314.2a22.43 22.43 0 0 1-2.9-.33 6.51 6.51 0 0 1-4.81-5.54 6.62 6.62 0 0 1 5.37-7.33 9.82 9.82 0 0 1 1.61-.1h2.49a.31.31 0 0 1 .38.37v2.52c0 .31-.12.38-.41.38h-3a3.35 3.35 0 0 0 0 6.7h3a.32.32 0 0 1 .39.39v2.49a.32.32 0 0 1-.39.39h-1.73v.09zM415.2 306.17v1.36a3.34 3.34 0 0 0 3 3.31.33.33 0 0 1 .37.42v2.45a.33.33 0 0 1-.44.41 6.6 6.6 0 0 1-5.54-3.85 6.69 6.69 0 0 1-.62-3v-9.23a.38.38 0 0 1 .48-.46h2.33c.4 0 .49.13.47.5v2.37a.38.38 0 0 0 .48.46h2.49a.3.3 0 0 1 .37.37v2.52c0 .32-.12.38-.4.37h-2.56a.3.3 0 0 0-.37.37 17.5 17.5 0 0 0-.06 1.63zM378.18 302.83v-4.82c0-.32.07-.45.42-.44h2.49a.3.3 0 0 1 .37.37v2.49a.39.39 0 0 0 .48.47h2.49a.31.31 0 0 1 .37.37v2.52a.3.3 0 0 1-.37.37h-2.49a.38.38 0 0 0-.48.46v3a3.37 3.37 0 0 0 3 3.26.29.29 0 0 1 .31.35v2.56a.3.3 0 0 1-.39.35 6.51 6.51 0 0 1-4.12-1.8 6.68 6.68 0 0 1-2.09-5.11c.01-1.48.01-2.94.01-4.4zM427.26 302.88v4.71a3.33 3.33 0 0 0 3 3.26.3.3 0 0 1 .33.38v2.52a.31.31 0 0 1-.4.37 6.53 6.53 0 0 1-5-2.77 6.43 6.43 0 0 1-1.23-3.91v-9.38a.39.39 0 0 1 .49-.48h2.37a.33.33 0 0 1 .41.41v4.9z" transform="translate(-304.09 -285.42)"/></svg>